<svg xmlns="http://www.w3.org/2000/svg" width="206.174" height="197.499"><path fill="#c3922e" d="M9.692 188.507C3.242 192.652 0 195.42 0 196.807c0 .463.463.689 1.378.689q2.779 0 11.759-3.456 53.964-19.366 59.5-22.15 25.6-11.758 56.047-34.586 26.973-19.349 44.278-43.589 15.215 9 19.372 15.215 13.826-20.058 13.84-28.36-4.152-6.218-19.372-15.9 6.913-22.128 6.924-40.121 0-19.366-11.07-23.517-13.148-4.846-32.858 13.148t-19.721 39.428q0 17.993 31.13 33.9-23.534 24.906-71.262 53.269-40.121 24.228-80.253 47.745ZM148.748 38.37c0-1.83 2.18-4.032 6.562-6.563S163.025 28 165.34 28q7.607 0 9.692 11.069a34.9 34.9 0 0 1-1.379 19.371q-24.906-11.758-24.906-20.06Z" data-name="Path 13605"/></svg>