<svg xmlns="http://www.w3.org/2000/svg" width="288" height="288.02"><g fill="#707070" data-name="Group 6056" opacity=".1"><g data-name="Group 6055"><path d="M269.234 116.322c.569.437 1.158.147 1.737-.869q7.193-11.331 7.188-14.813 0-1.09-8.057-6.645t-9.154-5.557c-.437 0-.874.437-1.305 1.306l-6.97 13.944c-.29.579-.29 1.016 0 1.306a166.9 166.9 0 0 1 16.561 11.328Z" data-name="Path 13592"/><path d="M140.167 149.788c.178-.391.376-.787.574-1.184a17.126 17.126 0 0 0 1.758.254c.315.239.615.477.95.7-.2.711-.437 1.5-.711 2.352a7.012 7.012 0 0 1-2.571-2.122Z" data-name="Path 13593"/><path d="M288 148.585a35.049 35.049 0 0 1-3.043 15.027q-.861 2.195-1.306 2.195-.655 0-1.956-2.195-6.111-11.094-18.527-11.11-22.654 0-51.851 29.632c-1.819 2-3.637 3.952-5.456 5.949q-3.025 3.269-6.01 6.528-5.844 6.34-11.664 12.67c-1.981 2.134-3.957 4.293-5.913 6.426-1.2 1.306-2.413 2.632-3.637 3.932q-14.143 14.386-26.568 14.376a22.794 22.794 0 0 1-2.911-.32q-8.565-13.548-23.541-28.387a42.416 42.416 0 0 1-.356-4.607q0-17.877 13.142-45.288a10.352 10.352 0 0 0 3.165 2.073q-1.6 4.747-4.11 11.506-6.972 18.859-6.96 29.733c0 5.517 1.306 9.962 3.912 13.3a13.711 13.711 0 0 0 11.547 5.436q11.537 0 27.026-14.153c.376-.335 1.661-1.681 3.7-3.855q2.195-2.339 5.69-6.106c3.246-3.541 7.275-7.909 12.217-13.31 1.783-1.935 3.637-3.972 5.618-6.147l.056-.056c1.7-1.839 3.363-3.444 5.024-5.141a38.932 38.932 0 0 0 20.22-8.815c5.634-4.745 9.073-10.261 10.338-16.449q16.7-10.051 31.476-10.063a22.058 22.058 0 0 1 14.59 5.121q6.075 5.133 6.088 12.098Z" data-name="Path 13594"/><path d="m89.739 28.372 13.945 6.97c.579.29 1.016.29 1.306 0a165.99 165.99 0 0 1 11.327-16.558c.437-.574.147-1.158-.869-1.742q-11.331-7.186-14.813-7.188-1.09 0-6.645 8.062t-5.557 9.149c-.004.433.437.87 1.306 1.307Z" data-name="Path 13595"/><path d="M151.475 145.166c.63.178 1.306.4 2.037.63a7.046 7.046 0 0 1-1.107 3.343 9.246 9.246 0 0 1-.93-.457c-.95-.432-1.9-.91-2.865-1.4-.32-.157-.594-.274-.894-.432a10.561 10.561 0 0 0 1.128-1.326c.239-.315.477-.615.691-.95.594.155 1.249.353 1.94.592Z" data-name="Path 13596"/><path d="M232.013 135.951a23.081 23.081 0 0 1-.315 2.87 21.185 21.185 0 0 1-1.859 6.619 26.437 26.437 0 0 1-7.193 9.017 34.123 34.123 0 0 1-11.45 6.365 39.305 39.305 0 0 1-7.945 1.58 42.973 42.973 0 0 1-4.567.335q-17.084 0-42.88-11.979a10.983 10.983 0 0 0 1.326-3.754c2.824.965 6.106 2.154 9.865 3.536q18.829 6.972 29.733 6.98 8.268 0 13.284-3.932c3.637-2.748 5.436-6.6 5.436-11.547q0-11.537-14.153-27.005c-.32-.376-1.681-1.681-3.835-3.719-1.585-1.463-3.617-3.358-6.132-5.674-3.515-3.261-7.9-7.275-13.3-12.217-1.915-1.778-3.952-3.637-6.126-5.634l-.061-.056c-1.839-1.681-3.439-3.343-5.161-5a38.9 38.9 0 0 0-8.814-20.224c-4.724-5.654-10.241-9.073-16.429-10.338q-10.051-16.726-10.063-31.476a22.059 22.059 0 0 1 5.121-14.59q5.128-6.1 12.1-6.106a35.077 35.077 0 0 1 15.018 3.061c1.443.574 2.174 1.006 2.174 1.306 0 .432-.731 1.087-2.174 1.956q-11.118 6.111-11.11 18.522 0 22.662 29.616 51.836c2 1.839 3.973 3.658 5.949 5.476 2.195 2 4.348 4.013 6.523 6.01 4.252 3.876 8.463 7.772 12.695 11.664 2.134 1.976 4.287 3.937 6.426 5.913 1.3 1.2 2.626 2.413 3.932 3.617q14.377 14.172 14.369 26.588Z" data-name="Path 13597"/><path d="M18.776 171.694c-.574-.432-1.158-.142-1.743.874q-7.185 11.323-7.188 14.813 0 1.082 8.057 6.645t9.159 5.553c.432 0 .869-.432 1.306-1.306l6.97-13.939c.29-.584.29-1.016 0-1.306a166.3 166.3 0 0 1-16.561-11.334Z" data-name="Path 13598"/><path d="M146.075 137.79a6.5 6.5 0 0 1 1.859.259c-.218.452-.432.909-.671 1.361-.137.3-.279.574-.417.889a10.721 10.721 0 0 0-1.326-1.143c-.335-.239-.63-.478-.965-.7a5.31 5.31 0 0 1 .158-.533 6.284 6.284 0 0 1 1.362-.133Z" data-name="Path 13599"/><path d="M162.743 89.337q0 17.854-13.147 45.293a10.929 10.929 0 0 0-3.52-.574h-.158c1.128-3.439 2.672-7.772 4.628-13.03q6.965-18.859 6.96-29.733c0-5.517-1.306-9.942-3.917-13.3a13.708 13.708 0 0 0-11.542-5.435q-11.537 0-27.026 14.153c-.376.335-1.661 1.682-3.7 3.856a668.635 668.635 0 0 0-5.674 6.132 2679.567 2679.567 0 0 0-12.238 13.284 1657.83 1657.83 0 0 1-5.613 6.147l-.061.061c-1.7 1.839-3.338 3.439-5.019 5.136a39.232 39.232 0 0 0-20.223 8.819c-5.634 4.745-9.058 10.261-10.343 16.449q-16.694 10.044-31.446 10.06a22.074 22.074 0 0 1-14.61-5.121q-6.081-5.128-6.091-12.1a35.075 35.075 0 0 1 3.048-15.022c.589-1.463 1.026-2.179 1.3-2.179.437 0 1.092.716 1.961 2.179q6.1 11.087 18.522 11.11 22.654 0 51.857-29.637c1.819-2 3.637-3.952 5.476-5.949 2-2.174 3.993-4.333 5.989-6.523Q94 87.066 99.82 80.738c1.976-2.134 3.952-4.287 5.913-6.426 1.224-1.305 2.428-2.626 3.637-3.932q14.143-14.387 26.568-14.371a23.644 23.644 0 0 1 2.885.315 21.906 21.906 0 0 1 6.624 1.839 27.069 27.069 0 0 1 9.012 7.193 33.762 33.762 0 0 1 6.35 11.466 36.935 36.935 0 0 1 1.58 7.93 42.945 42.945 0 0 1 .354 4.585Z" data-name="Path 13600"/><path d="m198.267 259.648-13.94-6.97c-.584-.289-1.016-.289-1.306 0a166.209 166.209 0 0 1-11.333 16.559c-.437.579-.142 1.163.874 1.743q11.323 7.193 14.813 7.188 1.082 0 6.645-8.057t5.552-9.154c0-.44-.434-.872-1.305-1.309Z" data-name="Path 13601"/><path d="M139.177 143.641a1.646 1.646 0 0 0-.376-.076 7.165 7.165 0 0 1 1.148-2.571c.117.056.218.117.335.178l.239.117c.076.041.137.061.218.1a10.621 10.621 0 0 1 2.982 2.057c.061.218.1.477.279.574a.989.989 0 0 0-.574.279c-.1.036-.137.157-.295.157a16.88 16.88 0 0 1-3.581-.711 3.5 3.5 0 0 1-.375-.104Z" data-name="Path 13602"/><path d="M156.637 267.32a21.953 21.953 0 0 1-5.121 14.59q-5.105 6.111-12.08 6.111a35.193 35.193 0 0 1-15.047-3.068c-1.443-.574-2.174-1.006-2.174-1.306 0-.432.731-1.087 2.174-1.956q11.125-6.1 11.11-18.522 0-22.654-29.611-51.836c-2-1.839-3.957-3.658-5.954-5.476-2.194-2-4.348-3.993-6.523-6.01q-6.347-5.814-12.67-11.664c-2.159-1.976-4.313-3.937-6.426-5.913a395.448 395.448 0 0 1-3.952-3.617q-14.356-14.173-14.376-26.589a21.979 21.979 0 0 1 .34-2.865 20.883 20.883 0 0 1 1.834-6.624 26.959 26.959 0 0 1 7.2-9.017 34.139 34.139 0 0 1 11.466-6.365 39.167 39.167 0 0 1 7.93-1.58c1.5-.137 2.982-.335 4.567-.335q18.5 0 47.249 14.077a10.091 10.091 0 0 0-1.346 3.124c-3.6-1.189-8.341-2.85-14.194-5q-18.859-6.972-29.754-6.98-8.275 0-13.284 3.937c-3.637 2.748-5.436 6.6-5.436 11.542q0 11.537 14.153 27.005c.335.376 1.681 1.682 3.856 3.718q2.339 2.195 6.106 5.674c3.52 3.261 7.91 7.295 13.3 12.217 1.941 1.778 3.957 3.637 6.152 5.634l.056.061c1.819 1.677 3.439 3.338 5.141 5 2.017 2 4.013 3.973 5.873 5.913a157.524 157.524 0 0 1 15.382 18.659c1.382 2.017 2.8 4.034 3.993 5.994q10.053 16.714 10.066 31.467Z" data-name="Path 13603"/></g><path d="M153.533 145.238a5.024 5.024 0 0 1-.02.554 7.046 7.046 0 0 1-1.107 3.343 5.421 5.421 0 0 1-.93 1.224 7.285 7.285 0 0 1-5.4 2.352 7.17 7.17 0 0 1-2.073-.295 5.329 5.329 0 0 1-1.265-.513 7.012 7.012 0 0 1-2.571-2.119 7.259 7.259 0 0 1-1.565-4.547 6.766 6.766 0 0 1 .2-1.676 7.164 7.164 0 0 1 1.148-2.571 7.351 7.351 0 0 1 4.765-3.068 6.284 6.284 0 0 1 1.361-.137 6.5 6.5 0 0 1 1.859.259 7.416 7.416 0 0 1 5.598 7.194Z" data-name="Path 13604"/></g></svg>