<svg version="1.1" id="Layer_1" xmlns="http://www.w3.org/2000/svg" x="0" y="0" viewBox="0 0 100.7 109.1" style="enable-background:new 0 0 100.7 109.1" xml:space="preserve"><style>.st0{fill:#c3922e}</style><g id="Group_1878" transform="translate(831 704)"><g id="Group_3" transform="translate(40 39.996)"><g id="Group_2" transform="translate(0 2.937)"><path id="Path_5" class="st0" d="M-801.9-737.1c-.1-.2-.1-.4 0-.6l2.9-5.6c.1-.4.4-.5.5-.5 1.3.6 2.6 1.3 3.7 2.3 2.1 1.5 3.2 2.4 3.2 2.7 0 1-1 3-2.9 5.9-.2.4-.5.5-.7.4-2.1-1.7-4.4-3.2-6.7-4.6z"/><path id="Path_6" class="st0" d="M-828.1-726.1c-.7.5-1.1.7-1.1 1 0 .1 0 .1.1.1.4-.1.9-.2 1.3-.4 3.9-1.4 6.2-2.3 6.5-2.5 2.2-1 4.3-2.3 6.2-3.8 1.9-1.3 3.5-3 4.9-4.9.8.4 1.5 1 2.1 1.7.9-.8 1.4-1.9 1.7-3.1-.6-.7-1.3-1.3-2.1-1.8.4-1.4.7-2.9.7-4.4 0-1.4-.4-2.3-1.2-2.6-1-.4-2.1.1-3.7 1.4-1.3 1.1-2.1 2.7-2.1 4.4 0 1.3 1.2 2.6 3.4 3.8-2.4 2.3-5 4.3-7.8 6-2.9 1.6-5.9 3.4-8.9 5.1zm15.4-16.6c0-.2.2-.5.7-.7.3-.2.7-.4 1.1-.5.6 0 1 .4 1.1 1.2.1.7.1 1.4-.1 2.1-1.9-.8-2.8-1.5-2.8-2.1z"/><path id="Path_7" class="st0" d="M-816.2-690.8c-.7.5-1.1.7-1.1 1 0 .1 0 .1.1.1.4-.1.9-.2 1.3-.4 3.9-1.4 6.2-2.3 6.5-2.5 2.2-1 4.3-2.3 6.2-3.8 1.9-1.3 3.5-3 4.9-4.9.8.4 1.5 1 2.1 1.7.8-.9 1.3-1.9 1.5-3.1-.6-.7-1.3-1.3-2.1-1.8.4-1.4.7-2.9.7-4.4 0-1.4-.4-2.3-1.2-2.6-1-.4-2.1.1-3.7 1.4-1.3 1.1-2.1 2.7-2.1 4.4 0 1.3 1.2 2.6 3.4 3.8-2.4 2.3-5 4.3-7.8 6-2.7 1.5-5.7 3.3-8.7 5.1zm15.4-16.7c0-.2.2-.5.7-.7.3-.2.7-.4 1.1-.5.6 0 1 .4 1.1 1.2.1.7.1 1.4-.1 2.1-1.9-.8-2.8-1.5-2.8-2.1z"/><path id="Path_8" class="st0" d="M-840.6-723.8h.5c1.4 0 2.6-2.1 3.4-6.3l-.2-.2h-.1c-1 2-1.9 3-2.7 3-1.2 0-1.7-1.2-1.7-3.4 0-1.4.8-4.9 2.5-10.3h-.2c-2.6 4.5-3.9 8.4-3.9 12v1.8c0 .5 0 1 .1 1.4.6 1.3 1.3 2 2.3 2z"/><path id="Path_9" class="st0" d="M-773.9-679.8c-1.9-1.6-4-2.9-6.2-4-2.8-1.6-5.4-3.5-7.7-5.7.7.1 1.4.2 2.1.2 1.4.1 2-.2 2-.8 0-.5-.5-.8-1.5-1.3l-8.1-4.4c-.5-.3-1.1-.6-1.7-.7-.2 0-.5.5-.6 1.3-.5 2.1-.7 4.2-.5 6.3-4.9 4.7-7.7 11.3-7.6 18.1 0 2.3.6 4.5 1.7 6.5-2.3 1-4.8 1.4-7.4 1.3v.1c-1.6.1-3.1-.2-4.5-1-2-1.3-3.3-3.9-4-8.1-1.7-9.5-3-16.9-4-22.2-.2-1.2-.5-2.3-.7-3.4l-4.6 5c1.5 5.8 2.3 10 2.3 12.7 0 .9-.2 1.9-.6 2.7-.4.8-.9 1.5-1.5 2.1-3.8 5-8.5 9.2-13.8 12.6-7.6 5.2-14.6 7.8-21.2 7.8-4.6 0-7-2.4-7-7.1 0-3.3 1-8.1 2.7-14.4.3-.6.4-1.3.5-2 0-.4-.1-.5-.2-.5-.4 0-.7.7-1.3 2-2.3 6.8-3.6 13-3.6 19-.1 2.8.6 5.5 2 7.8 1.4 2.5 4.1 4 6.9 3.8 5.8 0 12.2-2.3 19.3-6.8 5.9-3.7 11.2-8.4 15.6-13.8 2.3-3 3.8-6.5 4.3-10.2.8 5.2 1.3 8.7 1.7 10.5.8 5 2.5 8.3 5 10.2 1.8 1.3 4.2 1.9 7.3 1.9v-.1c2.6-.2 5.1-.8 7.4-1.9 2.6-1.2 5-2.6 7.3-4.4 4.3 1.4 8.7 2.1 13.2 2 2.9 0 4.9-.4 6.3-1.2 1.1-.8 2.1-1.9 2.7-3.1 1.4-2.5 2-5.3 1.9-8.2-.1-3.1-1.4-6.3-3.9-8.6zm-19.6 11.1c-1.7-.3-3.4-.9-4.9-1.8-1.9-1.2-2.9-2.5-2.9-4.2 0-1.9 1-3.9 3-6.2 2-2.3 3.7-3.4 5-3.4.8 0 1.9 1 3.1 3 1.2 1.7 1.9 3.7 1.9 5.8.1 2.5-1.7 4.8-5.2 6.8zm15.2 2.6c-3.2-.1-6.3-.5-9.4-1.3 1.5-3.6 2.3-7.5 2.5-11.4 1.9 1.7 4.1 3.2 6.4 4.4 2.7 1.7 4.4 2.9 5 3.7.7.8 1.1 1.7 1.2 2.7-.1 1.3-2 1.9-5.7 1.9z"/><path id="Path_10" class="st0" d="M-831.6-705.3c1.3-1.4 3-3.2 5-5.5-1.6-4-3.8-7.9-6.4-11.3-.6-.7-1-.6-1.2.6-.2 1-.5 2.4-.8 4.3-.3 1.1-.4 2.3-.4 3.4 1.5 3.1 2.7 5.9 3.8 8.5z"/><path id="Path_11" class="st0" d="M-842.6-685.8c3.3 0 8.7-3.6 10.7-5.8 4.2-4.4 9.6-11.1 13.2-14.4 4.4-4.2 14.9-12 20.9-12 3.2-.1 6.1 1.7 7.5 4.5.4.6.6.8.8.8.1 0 .2-.2.5-.8.8-1.9 1.2-4 1.2-6.1 0-1.9-1-3.7-2.5-4.9-1.7-1.4-3.8-2.1-5.9-2-8 0-17 5.5-27.1 16.4-2.4 2.5-7.8 8.6-11.1 11.9-3.8 4.2-7.8 5.7-10.9 5.7-1.8.1-3.5-.7-4.6-2.1-1.1-1.5-1.7-3.4-1.5-5.4 0-3 1-6.9 2.9-12s2.9-8.1 2.9-8.9c0-.1 0-.3-.1-.4-.2 0-.6.5-1.1 1.3-4.4 8.6-6.5 15.5-6.5 20.8-.1 3.5 1.1 6.9 3.3 9.6 1.6 2.4 4.4 3.8 7.4 3.8z"/><path id="Path_12" class="st0" d="M-840.2-675.1c.5-1.2.9-2.5 1.2-3.8.2-.8 0-1.7-.6-2.3l-.2-.2c-.7-.4-1.8-.1-3.1.7-.1 0-.1.1-.2.1-1.3.8-2.1 2.1-2.4 3.6-.1 1.2.7 2.4 2.6 3.7-2 2.1-4.3 4-6.8 5.5-2.3 1.6-4.7 3.1-7.3 4.4 4.3-3.6 6.5-6.7 6.9-9.5.4-2.5-.7-3.8-3.1-4.2-1.2 0-2.4.5-3.2 1.3-1.1.8-1.9 2.1-2.1 3.4-.1 1.3.3 2.6 1.2 3.6 1 1.1 1.4 1.9 1.3 2.4 0 .1 0 .3-.1.4-1.3 1.3-2.7 2.7-4.3 4-.4.4-.8.8-1.1 1.2 0 .1.1.2.4.4.6-.1 1.1-.2 1.7-.4 7.6-2.7 13.6-6.7 17.7-11.8.7.5 1.3 1.1 1.7 1.8.8-.7 1.3-1.6 1.7-2.6-.6-.7-1.2-1.3-1.9-1.7zm-16.2 3.8c-.5-.6-.7-1.1-.6-1.5 0-.4.4-.7 1-1.1.5-.3 1.2-.5 1.8-.5 1.9.2 2.9 1.2 2.6 2.9-.1 1.3-1.5 3.1-4 5.4.7-1 .8-2.2.4-3.3-.4-.8-.7-1.4-1.2-1.9zm15-4.5c-1.5-1-2.3-1.8-2.1-2.3 0-.2.2-.5.7-.6.5-.1.8-.2 1-.2.5.1.9.6.8 1.1.1.6 0 1.4-.4 2z"/></g></g></g><g id="Group_1879" transform="translate(904.359 848)"><path id="Path_1" d="m-871-739.1 4.3-6.9-2-.1c-.6-.1-1.3.1-1.8.5l.6-1.4h5.3l-4.3 6.8 2.5.2c.8 0 1.6-.2 2.3-.6l-.6 1.5h-6.3z"/><path id="Path_2" d="M-855.6-739.9c-.6.7-1.5 1-2.3 1-.8 0-1.6-.3-2.2-.8-.5-.7-.7-1.5-.6-2.3v-3.2c0-.6.1-1.4-.5-1.6h2.3c-.6.2-.5 1.1-.5 1.6v3.2c0 1.6.6 2.3 1.9 2.3.7 0 1.3-.3 1.7-.8.2-.3.3-.7.2-1.1v-3.6c0-.6.1-1.4-.5-1.6h2.3c-.6.2-.6 1.1-.6 1.6v4.4c0 .6-.1 1.4.6 1.6h-1.8v-.7z"/><path id="Path_3" d="M-848.9-743v2.2c0 .6-.1 1.4.5 1.6h-2.3c.6-.2.5-1.1.5-1.6v-4.5c0-.6.1-1.4-.5-1.6h2.3c-.6.2-.5 1.1-.5 1.6v1.5h4.3v-1.5c0-.6.1-1.5-.5-1.6h2.3c-.6.2-.6 1.1-.6 1.6v4.5c0 .6-.1 1.4.6 1.6h-2.3c.6-.2.5-1.1.5-1.6v-2.2h-4.3z"/><path id="Path_4" d="M-839.2-745.3c0-.6.1-1.5-.5-1.6h2.9c2.7 0 4.4 1.5 4.4 3.9 0 2.3-1.8 4-4.4 4h-2.8c.6-.4.5-1 .5-1.7v-4.6zm1.3 5.2c.3.1.6.1.9.1 1.8 0 3.4-.9 3.4-3 .2-1.5-.9-3-2.4-3.2h-.7c-.4 0-.7.1-1.1.2l-.1 5.9z"/></g></svg>