<svg xmlns="http://www.w3.org/2000/svg" width="262.406" height="584.556"><g data-name="Group 1880"><path data-name="Path 22" d="M9.322.046a1.468 1.468 0 0 1 1.204 1.693v.034a1.478 1.478 0 0 1-2.921-.45l.001-.057a1.482 1.482 0 0 1 .985-1.15 1.411 1.411 0 0 1 .72-.054ZM8.483 7.57a1.477 1.477 0 0 1 1.475 1.473 53.366 53.366 0 0 0 .534 7.303 1.471 1.471 0 1 1-2.913.409 55.715 55.715 0 0 1-.566-7.711 1.461 1.461 0 0 1 1-1.397 1.6 1.6 0 0 1 .473-.082Zm1.67 14.932a1.48 1.48 0 0 1 1.8 1.052c.451 1.748.993 3.541 1.6 5.336.19.576.396 1.151.599 1.716a1.477 1.477 0 0 1-2.778 1.007 47.976 47.976 0 0 1-.62-1.785A75.09 75.09 0 0 1 9.1 24.291a1.472 1.472 0 0 1 .951-1.768l.1-.032Zm6.796 14.972a111.798 111.798 0 0 0 3.285 6.666 1.477 1.477 0 1 1-2.605 1.39 117.622 117.622 0 0 1-3.37-6.835 1.477 1.477 0 0 1 .734-1.95.689.689 0 0 1 .136-.054 1.484 1.484 0 0 1 1.815.784Zm6.972 13.137a160.028 160.028 0 0 0 4.008 6.286 1.475 1.475 0 0 1-2.452 1.64 187.412 187.412 0 0 1-4.089-6.4 1.473 1.473 0 0 1 .496-2.022 2.365 2.365 0 0 1 .294-.141 1.459 1.459 0 0 1 1.728.636Zm8.285 12.41a220.318 220.318 0 0 0 4.508 5.958 1.475 1.475 0 1 1-2.322 1.822c-1.58-2.028-3.13-4.06-4.573-6.05a1.471 1.471 0 0 1 .328-2.058 1.474 1.474 0 0 1 2.06.316Zm9.227 11.786c1.56 1.867 3.2 3.781 4.871 5.686a1.477 1.477 0 1 1-2.222 1.947 307.078 307.078 0 0 1-4.927-5.74 1.473 1.473 0 0 1 .193-2.074 1.425 1.425 0 0 1 .476-.26 1.481 1.481 0 0 1 1.608.454Zm9.89 11.25a469.49 469.49 0 0 0 5.145 5.454 1.476 1.476 0 0 1-2.123 2.05 335.083 335.083 0 0 1-5.189-5.5 1.483 1.483 0 0 1 .082-2.085 1.6 1.6 0 0 1 .521-.316 1.463 1.463 0 0 1 1.553.397Zm10.414 10.796a405.843 405.843 0 0 0 5.362 5.245 1.477 1.477 0 0 1-2.04 2.126 538.017 538.017 0 0 1-5.409-5.279 1.483 1.483 0 0 1-.008-2.087 1.627 1.627 0 0 1 .567-.36 1.467 1.467 0 0 1 1.509.351Zm10.817 10.402c.486.446.96.892 1.458 1.35a87.28 87.28 0 0 1 4.016 3.941 1.476 1.476 0 0 1-2.124 2.05 94.655 94.655 0 0 0-3.894-3.815c-.486-.458-.984-.903-1.457-1.35a1.471 1.471 0 0 1-.076-2.077 1.408 1.408 0 0 1 .602-.39 1.473 1.473 0 0 1 1.476.318Zm10.57 10.978a123.024 123.024 0 0 1 4.686 6.018 1.474 1.474 0 0 1-2.387 1.731 116.968 116.968 0 0 0-4.565-5.87 1.473 1.473 0 0 1 .193-2.072 1.469 1.469 0 0 1 2.073.193Zm8.986 12.309a133.436 133.436 0 0 1 3.937 6.51 1.474 1.474 0 1 1-2.562 1.455 136.765 136.765 0 0 0-3.862-6.374 1.477 1.477 0 0 1 .436-2.034 1.244 1.244 0 0 1 .328-.152 1.47 1.47 0 0 1 1.707.602Zm7.545 13.204a175.366 175.366 0 0 1 3.292 6.847 1.473 1.473 0 1 1-2.68 1.221 175.332 175.332 0 0 0-3.238-6.732 1.478 1.478 0 0 1 .64-1.99c.068-.032.137-.064.193-.086a1.473 1.473 0 0 1 1.788.731Zm6.29 13.822a225.034 225.034 0 0 1 2.727 7.083 1.476 1.476 0 0 1-.886 1.892h-.034a1.462 1.462 0 0 1-1.86-.886c-.858-2.36-1.757-4.71-2.678-6.982a1.476 1.476 0 0 1 .808-1.916c.022-.011.056-.021.08-.033a1.476 1.476 0 0 1 1.836.84Zm3.324 13.31a1.479 1.479 0 0 1 1.858.953c.767 2.38 1.51 4.818 2.208 7.253a1.473 1.473 0 1 1-2.831.815 210.555 210.555 0 0 0-2.175-7.152 1.469 1.469 0 0 1 .932-1.846h.022Zm4.237 14.448a1.476 1.476 0 0 1 1.787 1.075 225.481 225.481 0 0 1 1.723 7.38 1.475 1.475 0 1 1-2.884.623 252.432 252.432 0 0 0-1.702-7.29 1.48 1.48 0 0 1 .951-1.757c.034-.01.08-.02.113-.032Zm3.278 14.7a1.487 1.487 0 0 1 1.718 1.187c.451 2.476.878 4.997 1.25 7.473a1.473 1.473 0 0 1-2.914.431 234.33 234.33 0 0 0-1.23-7.382 1.483 1.483 0 0 1 .972-1.667 1.19 1.19 0 0 1 .214-.052Zm2.332 14.887a1.478 1.478 0 0 1 1.638 1.297c.293 2.518.55 5.059.754 7.542a1.477 1.477 0 1 1-2.943.24c-.205-2.45-.453-4.956-.745-7.452a1.473 1.473 0 0 1 .992-1.564 3.014 3.014 0 0 1 .301-.074Zm-26.332 9.482a1.475 1.475 0 0 1 .623 2.883 27.105 27.105 0 0 0-3.62 1.048 15.216 15.216 0 0 0-2.92 1.407 1.477 1.477 0 1 1-1.556-2.506 18.367 18.367 0 0 1 3.474-1.679c.181-.064.372-.128.553-.19a29.668 29.668 0 0 1 3.44-.95Zm7.877-.615a28.722 28.722 0 0 1 7.737 1.582 1.473 1.473 0 0 1-.98 2.778 25.615 25.615 0 0 0-6.943-1.422 1.474 1.474 0 0 1-.376-2.868 1.59 1.59 0 0 1 .563-.08Zm-19.104 8.677a1.477 1.477 0 0 1 .38 2.049 23.409 23.409 0 0 0-3.007 6.377 1.477 1.477 0 1 1-2.823-.868 26.363 26.363 0 0 1 3.401-7.178 1.4 1.4 0 0 1 .74-.559 1.482 1.482 0 0 1 1.308.18Zm33.869-3.627a41.051 41.051 0 0 1 3.601 2.599 1.472 1.472 0 0 1 2.941-.106c.112 2.571.18 5.12.193 7.589a1.47 1.47 0 1 1-2.94.015 125.096 125.096 0 0 0-.05-3.513 40.119 40.119 0 0 0-5.33-4.099 1.476 1.476 0 0 1 .326-2.642 1.456 1.456 0 0 1 1.266.157ZM76.25 246.369a1.478 1.478 0 0 1 1.352 1.583 40.41 40.41 0 0 0 .098 7.251 1.474 1.474 0 1 1-2.934.297 44.322 44.322 0 0 1-.11-7.786 1.486 1.486 0 0 1 .999-1.283 1.275 1.275 0 0 1 .584-.069Zm50.585-7.129a75.634 75.634 0 0 1 4.549 6.18 1.477 1.477 0 1 1-2.464 1.63 69.663 69.663 0 0 0-4.374-5.933 1.475 1.475 0 0 1 .204-2.073 1.275 1.275 0 0 1 .465-.261 1.476 1.476 0 0 1 1.608.454Zm-6.227 5.737a1.478 1.478 0 0 1 1.41 1.54c-.113 2.613-.291 5.168-.534 7.6a1.475 1.475 0 1 1-2.934-.3c.233-2.373.41-4.873.523-7.43a1.445 1.445 0 0 1 1-1.328 1.7 1.7 0 0 1 .54-.08Zm-43.363 16.346a1.468 1.468 0 0 1 1.811 1.019c.201.71.414 1.407.648 2.099a40.232 40.232 0 0 0 1.927 4.679 1.475 1.475 0 0 1-2.649 1.3 40.045 40.045 0 0 1-2.077-5.037 53 53 0 0 1-.69-2.246 1.471 1.471 0 0 1 .94-1.79c.023.001.046-.02.08-.02Zm58.097-9.365a117.589 117.589 0 0 1 3.461 6.793 1.475 1.475 0 1 1-2.67 1.254 111.441 111.441 0 0 0-3.374-6.623 1.468 1.468 0 0 1 .574-1.999 2.228 2.228 0 0 1 .238-.107 1.47 1.47 0 0 1 1.761.681Zm-16.085 8.02a1.457 1.457 0 0 1 1.193 1.704 74.561 74.561 0 0 1-1.69 7.5 1.475 1.475 0 0 1-2.836-.813 71.686 71.686 0 0 0 1.618-7.198 1.466 1.466 0 0 1 .985-1.139 1.442 1.442 0 0 1 .734-.052ZM85.486 275.2a25.808 25.808 0 0 0 5.155 4.87 1.472 1.472 0 1 1-1.68 2.418 28.077 28.077 0 0 1-5.763-5.43 1.475 1.475 0 0 1 .215-2.073 1.505 1.505 0 0 1 .454-.25 1.48 1.48 0 0 1 1.622.467Zm56.366-9.473a168.388 168.388 0 0 1 2.692 7.105 1.474 1.474 0 0 1-.897 1.885h-.022a1.463 1.463 0 0 1-1.858-.897 169.127 169.127 0 0 0-2.65-6.981 1.476 1.476 0 0 1 .808-1.916c.022-.011.056-.021.08-.033a1.476 1.476 0 0 1 1.836.84Zm-26.466 8.785a1.474 1.474 0 0 1 .694 1.964 23.783 23.783 0 0 1-4.469 6.61 1.476 1.476 0 1 1-2.083-2.09 20.8 20.8 0 0 0 3.893-5.788 1.425 1.425 0 0 1 .855-.76 1.469 1.469 0 0 1 1.107.064Zm-18.421 8.588a21.65 21.65 0 0 0 6.225.808c.224.004.46-.014.684-.033a1.473 1.473 0 0 1 .274 2.934c-.3.028-.618.045-.92.05a24.337 24.337 0 0 1-7.065-.923 1.476 1.476 0 0 1-.063-2.817 1.448 1.448 0 0 1 .876-.02Zm48.13-4.041a1.478 1.478 0 0 1 1.845.963 204.564 204.564 0 0 1 2.129 7.276 1.473 1.473 0 0 1-2.841.78 233.796 233.796 0 0 0-2.108-7.185 1.475 1.475 0 0 1 .932-1.835h.034Zm4.09 14.48a1.475 1.475 0 0 1 1.781 1.086c.137.541.261 1.082.387 1.623a78.47 78.47 0 0 1 1.166 5.866 1.47 1.47 0 1 1-2.904.465 80.161 80.161 0 0 0-1.125-5.652 66.08 66.08 0 0 0-.387-1.6 1.479 1.479 0 0 1 .962-1.745c.045-.01.08-.02.123-.031Zm2.648 14.801a1.471 1.471 0 0 1 1.57 1.363c.18 2.503.248 5.076.214 7.645a1.476 1.476 0 0 1-2.95-.041 84.473 84.473 0 0 0-.209-7.399 1.477 1.477 0 0 1 .991-1.498 1.28 1.28 0 0 1 .372-.072Zm.037 15.037a1.486 1.486 0 0 1 1.33 1.605c-.235 2.488-.57 5.04-.997 7.568a1.47 1.47 0 0 1-2.898-.488c.413-2.462.749-4.936.97-7.356a1.473 1.473 0 0 1 .998-1.261 1.371 1.371 0 0 1 .607-.069Zm-2.29 14.872a1.475 1.475 0 0 1 1.09 1.78 127.786 127.786 0 0 1-2.002 7.36 1.47 1.47 0 0 1-2.813-.856c.742-2.4 1.384-4.812 1.955-7.181a1.447 1.447 0 0 1 .96-1.05 1.5 1.5 0 0 1 .81-.042Zm-4.214 14.458a1.469 1.469 0 0 1 .877 1.89c-.86 2.34-1.8 4.715-2.805 7.076a1.472 1.472 0 1 1-2.706-1.159c.982-2.305 1.91-4.645 2.758-6.93a1.5 1.5 0 0 1 .916-.894 1.392 1.392 0 0 1 .975.017Zm-5.775 13.925a1.46 1.46 0 0 1 .683 1.964 159.657 159.657 0 0 1-3.461 6.774 1.475 1.475 0 1 1-2.598-1.396 168.149 168.149 0 0 0 3.403-6.662 1.5 1.5 0 0 1 .855-.76 1.417 1.417 0 0 1 1.11.065Zm-7.034 13.343a1.471 1.471 0 0 1 .515 2.017 196.193 196.193 0 0 1-3.996 6.461 1.474 1.474 0 1 1-2.472-1.602 211.742 211.742 0 0 0 3.938-6.373 1.462 1.462 0 0 1 .796-.648 1.509 1.509 0 0 1 1.221.122Zm-8.077 12.74a1.477 1.477 0 0 1 .364 2.05 198.92 198.92 0 0 1-4.46 6.15 1.47 1.47 0 1 1-2.348-1.77 194.94 194.94 0 0 0 4.406-6.061 1.483 1.483 0 0 1 2.06-.357Zm-9.013 12.108a1.468 1.468 0 0 1 .211 2.068c-3.027 3.695-4.936 5.727-5.016 5.813a1.47 1.47 0 1 1-2.142-2.012c.022-.022 1.936-2.054 4.878-5.66a1.479 1.479 0 0 1 2.08-.2Z" fill="#c3922e"/><path data-name="Path 23" d="M138.94 494.81a5.077 5.077 0 1 0-5.748 8.371c2.32 1.588 126.08 83.63 127.658 81.325s-119.604-88.108-121.91-89.697Zm-1.002 1.452c1.508 1.037 14.249 11.02 13.224 12.533s-15.447-6.038-16.955-7.073a3.312 3.312 0 0 1 3.742-5.467Z" fill="#707070"/><path data-name="Path 24" d="M195.032 387.505a.881.881 0 0 1 .012 1.234c-12.474 12.665-6.861 33.712-1.9 52.275 1.96 7.336 3.813 14.26 4.471 20.287.754 6.926-.182 11.689-2.943 14.996-3.507 4.192-9.942 5.828-19.69 4.997a226.561 226.561 0 0 1-28.32-3.938 79.579 79.579 0 0 1-4.242 13.492c-4.685 11.24-11.29 19.371-18.603 22.913a19.783 19.783 0 0 1-12.81 1.662c-4.763-.958-9.638-3.636-14.482-7.962-9.102-8.12-14.419-17.885-15.807-29.03-1.102-8.884.28-18.644 4.12-29.002a114.8 114.8 0 0 1 18.104-31.124.876.876 0 0 1 1.326 1.145 112.793 112.793 0 0 0-17.791 30.594c-8.515 23.008-4.736 41.893 11.218 56.13 8.839 7.875 17.366 9.905 25.366 6.031 6.926-3.358 13.223-11.171 17.743-22.02a76.473 76.473 0 0 0 4.147-13.201c-18.23-4.178-24.56-9.81-26.296-14.452-1.319-3.546-.242-7.354 3.025-10.707 4.982-5.12 13.614-7.92 18.846-6.123 4.45 1.525 7.162 6.858 7.65 15.001a60.577 60.577 0 0 1-1.182 14.96 224.754 224.754 0 0 0 28.108 3.913c9.132.777 15.093-.667 18.198-4.383 5.414-6.458 1.87-19.694-1.869-33.707-5.077-19.018-10.838-40.584 2.342-53.967a.933.933 0 0 1 .341-.218.863.863 0 0 1 .897.207Zm-48.587 73.29c-.443-7.392-2.739-12.167-6.475-13.456-4.584-1.572-12.542 1.081-17.02 5.695-1.966 2.019-4.02 5.193-2.647 8.886 1.329 3.569 6.562 9.116 25.013 13.352a59.361 59.361 0 0 0 1.14-14.483Z" fill="#c3922e"/></g></svg>