<svg xmlns="http://www.w3.org/2000/svg" width="1920" height="1080"><defs><clipPath id="a"><path data-name="Rectangle 9103" transform="translate(0 10444)" fill="#fff" stroke="#707070" d="M0 0h1920v1080H0z"/></clipPath></defs><g data-name="Mask Group 32" transform="translate(0 -10444)" clip-path="url(#a)"><g data-name="Group 1877" opacity=".15" fill="#707070"><path data-name="Path 18" d="M155.984 10951.475c.718-.718 19.863-31.59 22.257-37.094.479-.957-39.487-29.2-44.274-31.829-2.393 1.915-23.214 36.855-22.257 36.855 13.642 9.333 32.069 22.017 44.274 32.068Z"/><path data-name="Path 19" d="M289.284 10884.707c5.265 3.35 9.812 10.291 14.12 16.513 13.641 20.1 24.889 35.9 32.787 47.624 45.231 55.043 99.078 107.693 150.77 156.753 56.24 54.325 87.59 102.189 94.052 144.309 3.829 26.8 6.7 39.966 7.9 39.727 4.308-4.547 8.855-47.385 8.615-60.308 0-44.034-30.633-96.924-91.659-159.146q-44.872-44.513-89.744-89.984c-41.163-41.4-67.488-69.4-78.018-84.24 3.111.718 36.616 16.513 36.616 9.812 0-1.436 0-6.222-13.4-18.427-7.9-5.983-74.188-60.547-72.035-53.368 0 0-3.59 36.376-3.59 42.6-.243 4.305.954 6.699 3.586 8.135Z"/><path data-name="Path 20" d="M269.9 11079.272c2.632.239 4.068-.239 4.547-1.436a4.407 4.407 0 0 1 3.35-1.436c6.222 0 23.214 55.282 23.214 61.744.957 1.915 3.35-2.154 5.744-6.222 3.111-5.983 6.222-16.513 8.615-31.351 5.983-34.222 12.445-51.214 19.145-51.453 7.658.718 13.4 12.684 14.838 12.684 1.2.239 7.18-13.641 7.18-17.231 0-2.872-1.436-6.462-5.265-11.487-13.4-17.949-28.239 5.744-33.265 17.71-5.983 22.735-9.812 39.248-11.248 50.257-1.436 5.265-2.154 5.744-2.632.239-2.872-18.427-8.376-33.026-16.034-44.752-7.419-11.009-16.274-16.992-26.086-16.992-1.436 0-12.684 18.667-13.4 21.539.476 6.699 15.553 18.904 21.297 18.187Z"/><path data-name="Path 21" d="M1017.049 10879.92a50.42 50.42 0 0 0-5.265 1.2c-70.6 25.846-238.839 89.266-303.933 112.958a205.39 205.39 0 0 0-8.855 22.5c80.411-31.829 250.327-96.924 309.677-118.7 2.633-1.924 8.616-17.001 8.376-17.958Z"/><path data-name="Path 22" d="M801.185 10869.39c.718-.239 2.154-6.94 3.829-8.855 5.744-6.7 16.992-6.94 18.427 5.265 1.675 6.462-3.59 22.017-16.034 45.949-.239.718-5.744 9.333-4.069 9.094.957-.239 3.59-3.111 6.94-7.179 17.949-22.975 38.052-85.915 6.462-84-17.948 5.264-18.666 39.008-15.555 39.726Z"/><path data-name="Path 23" d="M904.809 10977.319c-.957.239-3.59 3.111-6.94 7.18-17.949 22.974-38.052 85.915-6.462 84 17.709-5.265 18.428-39.009 15.316-39.727-.718.239-2.154 6.94-3.829 8.855-5.744 6.7-16.992 6.94-18.428-5.265-1.675-6.462 3.59-22.017 16.034-45.949.48-.715 5.984-9.331 4.309-9.094Z"/><path data-name="Path 24" d="M516.162 10980.673c24.65-7.18 25.607-54.086 21.3-55.043-.957.239-3.111 9.812-5.265 12.445-8.137 9.333-23.693 9.812-25.607-7.419-2.393-8.855 4.786-30.633 22.257-63.659.479-.957 8.137-13.163 5.744-12.684-1.2.239-5.265 4.308-9.573 10.051-25.134 31.59-52.895 118.941-8.856 116.309Z"/><path data-name="Path 25" d="M367.062 11246.794c2.154-1.675 9.812-9.333 10.769-3.829 1.2 20.342 6.7 30.633 16.992 38.77 24.171 19.624 63.659 14.6 82.325-10.53 24.65-32.069 23.453-83.043 6.7-118.462-2.633-5.5-5.026-8.376-6.462-8.615 0 0-15.556 39.966-15.556 44.992.718 3.59 3.111 7.419 5.983 12.444 6.94 11.009 10.291 19.624 10.291 25.128-13.162 20.1-78.975 23.932-78.975-13.88a67.155 67.155 0 0 1 4.068-21.539c4.068-11.009-2.633-11.727-10.769-5.983-59.351 48.1-100.035 74.189-179.967 58.154-29.436-5.744-41.4-23.453-48.821-63.419-5.983-37.573-11.248-71.556-16.274-102.907 17.709-11.487 40.205-33.744 49.06-51.214 1.2-2.872 10.051-20.581 7.419-23.453-.718.239-35.419 37.094-60.069 49.539-2.393-14.12-6.94-41.881-13.4-63.9-1.675-5.265-3.111-7.9-4.786-8.137 0 0-18.188 42.12-19.385 49.06 3.35 12.205 5.5 32.308 6.462 41.163-32.547 23.453-55.282 42.359-68.684 57.2-21.06 24.65-33.026 51.453-34.7 80.889-1.2 19.624 6.94 29.915 24.65 30.872 23.214 1.436 49.06-6.462 76.342-23.453 11.248-7.18 20.1-23.693 26.325-50.257 3.59 40.684 7.419 78.736 24.41 101.471 41.162 54.563 164.171 31.11 206.052-20.104Zm-238.839-94.77a27.427 27.427 0 0 1-2.393 5.5v.239c-8.615 29.915-95.966 48.342-94.77 28.718 0-1.675.957-4.069 2.632-7.18.479-2.633 2.393-5.983 5.744-10.769 9.573-11.966 23.932-26.564 43.556-44.034 15.316-13.641 27.761-23.214 36.855-29.915 2.868 14.604 9.333 42.604 8.376 57.441Z"/><path data-name="Path 26" d="M814.587 11368.607c-2.393 1.914-23.214 36.855-22.257 36.855 13.641 9.333 32.069 22.017 44.274 32.308.718-.718 19.863-31.59 22.256-37.094.479-1.197-39.487-29.437-44.273-32.069Z"/><path data-name="Path 27" d="M86.103 10953.391c.718-.718 19.863-31.59 22.257-37.094.479-.957-39.487-29.2-44.274-31.829-2.393 1.915-23.214 36.855-22.257 36.855 13.642 9.332 32.069 22.016 44.274 32.068Z"/><path data-name="Path 28" d="M382.379 11329.837c-2.393 1.914-23.214 36.855-22.257 36.855 13.641 9.333 32.069 22.017 44.274 32.308.718-.718 19.863-31.59 22.257-37.094.479-1.197-39.487-29.436-44.274-32.069Z"/><path data-name="Path 29" d="M964.639 11174.52c-10.53-1.436-41.641-9.573-92.855-23.693-43.556-11.966-120.856-43.316-152.924 9.094-7.18 11.966-11.009 37.334-11.009 63.659 0 11.727 2.632 27.522 8.137 47.624-52.65-33.026-49.539-62.223-56.24-119.18-13.4-115.591-5.026-201.745-37.812-427.182-1.44-8.137-20.34 46.906-20.34 50.496 11.248 91.18 22.5 250.566 22.5 406.122 0 130.907-98.6 171.83-196.719 228.548-4.547 3.111-12.444 7.9-12.444 9.094-3.829 11.009 42.6-6.462 68.206-12.684 25.128-6.7 52.65-17.709 63.18-22.735 63.411-28.478 80.403-100.991 91.177-162.018 12.923 54.565 29.915 92.855 93.334 107.932 2.872 13.641-1.675 32.069 2.872 34.94 5.026.479 15.8-15.795 16.513-33.265 28 0 66.53-15.316 126.12-46.906 44.752-23.692 75.625-38.77 92.616-45.47 14.12-5.265 30.154-7.658 48.1-7.9 3.35.239 5.744-1.436 7.179-5.744 2.393-5.983 21.06-35.9 22.5-40.205-16.279 1.439-76.348-9.57-82.091-10.527Zm-107.933 75.145q-66.77 30.513-99.078 30.154a83.677 83.677 0 0 1-13.4-.479c-10.051-29.436-17.71-50.975-23.692-64.855.239-7.18 4.547-14.838 13.641-22.5a54.648 54.648 0 0 1 34.94-13.162q38.769.359 160.1 38.291Z"/><g data-name="Group 13"><path data-name="Path 30" d="M264.395 11328.401c-2.393 1.915-23.214 36.855-22.257 36.855 13.641 9.333 32.069 22.017 44.274 32.308.718-.718 19.863-31.59 22.257-37.094.479-.958-39.487-29.197-44.274-32.069Z"/><path data-name="Path 31" d="M194.753 11330.316c-2.393 1.915-23.214 36.855-22.257 36.855 13.641 9.333 32.069 22.017 44.274 32.308.718-.718 19.863-31.59 22.257-37.094.239-.958-39.727-29.197-44.274-32.069Z"/></g><path data-name="Path 32" d="M218.207 10977.323c4.786-11.727 9.094-23.932 12.923-35.9 3.829-12.205 7.18-24.41 9.812-36.855 5.265-24.65 8.615-50.017 6.461-74.428-1.2-12.205-3.59-24.171-8.376-35.18a69.927 69.927 0 0 0-35.18-36.616 80.069 80.069 0 0 0-16.513-5.983 147.073 147.073 0 0 0-35.658-4.547c-5.983 0-12.205.239-18.427.479-3.111.239-6.222.479-9.094.718-3.111.239-6.222.718-9.094.957-6.222.718-12.205 1.915-18.188 2.872-5.983 1.2-11.966 2.393-17.949 4.068-5.983 1.436-11.727 3.35-17.71 5.265-5.744 2.154-11.727 4.068-17.231 6.462a263.072 263.072 0 0 0-33.026 16.034 292.466 292.466 0 0 0-105.06 100.756c-26.081 41.402-40.681 89.983-40.681 138.804a268.794 268.794 0 0 0 2.39 36.62 228.076 228.076 0 0 0 7.658 35.9c1.436 5.983 3.59 11.727 5.5 17.47.957 2.872 2.154 5.744 3.35 8.615l1.675 4.308 1.915 4.308 3.59 8.615 4.068 8.376c2.632 5.5 5.744 11.009 8.615 16.513a385.53 385.53 0 0 0 43.8 60.547 508.52 508.52 0 0 0 53.846 52.65c38.53 32.786 81.847 60.069 126.36 84.719-46.906-20.1-92.377-44.753-133.779-75.624a491.994 491.994 0 0 1-58.154-51.214 376.222 376.222 0 0 1-48.1-61.5c-27.763-44.525-44.515-96.696-45.472-150.064-.479-13.4.718-26.564 2.393-39.727a268.785 268.785 0 0 1 8.137-39.009 260.871 260.871 0 0 1 13.641-37.573 274.505 274.505 0 0 1 18.667-35.179 306.218 306.218 0 0 1 23.214-32.308 345.711 345.711 0 0 1 27.043-29.2 314.087 314.087 0 0 1 64.137-46.667c46.667-25.128 99.8-38.291 152.685-35.9a164.319 164.319 0 0 1 39.966 6.7 119.608 119.608 0 0 1 19.145 7.9 96.237 96.237 0 0 1 17.231 11.966 87.592 87.592 0 0 1 13.88 15.795 88.9 88.9 0 0 1 9.333 18.427 126.577 126.577 0 0 1 7.419 39.487 238.786 238.786 0 0 1-2.872 39.248 289.218 289.218 0 0 1-8.855 37.812 419.53 419.53 0 0 1-29.435 71.083Z"/><path data-name="Path 33" d="M580.534 10735.611a26.486 26.486 0 0 1-3.829-2.633l-3.59-2.632c-2.393-1.675-4.547-3.59-6.94-5.265-4.547-3.59-8.855-7.18-13.163-11.248a237.447 237.447 0 0 1-24.171-24.889 209.051 209.051 0 0 1-20.342-28.958c-5.744-10.53-10.769-21.778-13.641-33.744a113.686 113.686 0 0 1-3.351-37.094c.718-12.445 4.308-24.65 9.094-35.9 4.547-11.487 11.248-21.539 18.188-31.111l5.5-6.94 2.872-3.35 3.111-3.111c4.068-4.308 7.658-8.376 12.923-12.684a115.917 115.917 0 0 1 31.829-18.427 178.839 178.839 0 0 1 33.983-9.094 239.33 239.33 0 0 1 34.228-3.109 320.272 320.272 0 0 1 33.983 1.2 388.518 388.518 0 0 1 66.291 11.727 479.027 479.027 0 0 1 63.18 21.537 528.222 528.222 0 0 1 209.642 159.622 542.03 542.03 0 0 1 68.445 113.437 567.146 567.146 0 0 1 23.214 61.983 660.905 660.905 0 0 1 16.03 64.137c4.068 21.539 7.179 43.556 9.333 65.334l1.2 16.513.479 8.137.239 8.137.718 16.513v16.513c.239 43.8-3.829 87.59-10.53 130.907-.957 5.5-1.436 10.769-2.633 16.274l-3.106 16.273c-2.633 10.769-5.026 21.538-8.376 32.069l-2.393 7.9-2.872 7.9-2.872 7.9-1.436 3.829-1.675 3.829-5.983 15.077-7.18 14.838a396.15 396.15 0 0 1-34.222 56.24 386.967 386.967 0 0 1-43.317 49.539c-7.9 7.658-16.274 14.838-24.65 21.778l-13.162 10.051c-2.154 1.675-4.547 3.35-6.7 4.786l-6.7 4.547c-2.393 1.436-4.547 3.111-6.94 4.547l-6.94 4.308c-4.786 2.872-9.333 5.744-14.12 8.376l-14.6 7.658-14.838 6.94c-20.1 8.855-40.684 16.513-61.983 21.778-10.53 3.111-21.3 5.025-32.068 7.18-1.436.239-2.632.479-4.068.718l-4.068.718-8.137 1.2c-5.5.718-10.769 1.675-16.274 2.154-43.316 4.786-87.351 3.829-130.428-1.2a829.43 829.43 0 0 1-127.8-26.325c41.881 11.248 84.718 19.863 128.035 24.41 43.077 4.547 86.872 4.786 129.949-.718 5.265-.718 10.769-1.675 16.034-2.393l7.9-1.2 4.068-.718a25.028 25.028 0 0 0 4.068-.957c10.53-2.393 21.3-4.547 31.59-7.658 20.821-5.5 41.163-13.4 60.787-22.257l14.6-6.94 14.12-7.9c4.787-2.393 9.334-5.5 13.88-8.376l6.94-4.308c2.154-1.436 4.308-3.111 6.7-4.547l6.7-4.547a64.459 64.459 0 0 0 6.462-4.786l12.684-10.051c8.137-7.18 16.274-14.12 23.932-21.778a352.811 352.811 0 0 0 41.641-49.06 391.64 391.64 0 0 0 32.547-55.522l6.7-14.6 5.983-14.838 1.436-3.829 1.2-3.829 2.633-7.658 2.633-7.658 2.154-7.658c3.111-10.291 5.5-20.821 7.658-31.111l2.872-15.795c.957-5.265 1.436-10.769 2.393-16.034a832.229 832.229 0 0 0 8.371-128.999l-.239-16.274-.957-16.034-.479-8.137-.718-8.137-1.436-16.034a639.9 639.9 0 0 0-10.051-63.659 610.041 610.041 0 0 0-16.513-62.223 607.5 607.5 0 0 0-23.453-59.829 510.183 510.183 0 0 0-271.147-258.7 482.905 482.905 0 0 0-60.547-19.624 370.357 370.357 0 0 0-62.228-10.049 339.526 339.526 0 0 0-31.111-.718 217.8 217.8 0 0 0-30.633 3.111 158.913 158.913 0 0 0-28.718 8.137 80.91 80.91 0 0 0-24.171 14.359l-2.393 2.154-1.2 1.2-1.2 1.436-5.265 5.5-2.632 2.872-2.393 2.872-4.547 5.983c-5.744 8.137-11.009 16.274-14.359 25.128a84.189 84.189 0 0 0-6.462 27.043 83.288 83.288 0 0 0 3.111 27.522c5.026 18.188 15.556 35.419 28.718 50.5a228.706 228.706 0 0 0 21.539 21.539c3.829 3.35 7.9 6.462 11.966 9.573 1.915 1.436 4.068 3.111 6.222 4.547l3.111 2.154c.957.718 2.154 1.436 2.872 1.915Z"/></g></g></svg>