<svg xmlns="http://www.w3.org/2000/svg" width="1920" height="1080"><defs><clipPath id="a"><path data-name="Rectangle 9109" transform="translate(0 11524)" fill="#fff" d="M0 0h1920v1080H0z"/></clipPath></defs><g data-name="Mask Group 35" transform="translate(0 -11524)" clip-path="url(#a)"><g data-name="Group 1571" opacity=".1" fill="#707070"><path data-name="Path 8550" d="M2008.714 11469.979c-83.4.567-344.669 134.463-411.333 193.185-13.9 12.482-20.425 41.417-20.708 96.451.567 3.972 13.616 13.9 17.588 15.886 19.29 26.949 45.672 52.764 78.3 76.593 14.751 10.78 44.821 30.921 91.344 60.14a618.69 618.69 0 0 1 82.266 62.126c14.184 13.333 22.127 34.609 9.078 41.984-16.453 12.2-47.374 21.56-95.6 34.041h-.284c-3.121.851-5.957 1.418-9.361 2.269-2.553-25.531-34.325-81.416-76.309-80.848-43.97 1.7-71.771 54.75-71.771 93.9 0 33.19 24.4 55.885 72.905 55.034 22.694-.567 35.744-6.241 48.225-9.929 5.106 4.539 8.794 17.588 8.794 24.113 0 14.184-34.609 41.7-43.97 50.778-51.913 43.119-126.521 93.614-202.263 98.72-118.577 0-89.926-104.677-68.367-181.27 1.7-6.241 2.553-10.5 2.553-14.184 0-1.135-1.135-4.255-3.4-3.688-1.7.567-4.255 5.39-8.51 15.319-31.772 80-59.572 243.68 72.622 243.68 88.224 0 218.432-108.649 252.473-157.158 9.361-19.574 18.723-59.856 19.858-80.281l5.106-.851c43.4-7.943 77.16-25.247 90.493-37.729 20.141-17.588 28.652-55.885 28.652-90.493 0-34.041-26.1-62.125-51.062-81.983-15.33-12.205-49.93-34.329-103.55-66.105-43.687-25.815-72.054-46.807-84.82-63.26 5.957.851 25.531 4.823 26.949-.284 0-3.971.851-8.51-15.6-17.872l-54.751-28.084c-3.12-1.418-3.4-3.688-.851-6.241 66.38-52.759 315.166-189.209 390.057-190.059 18.723.284 27.8 3.688 27.8 10.5a7.1 7.1 0 0 1-.851 3.688c-20.425 36.311-54.466 61.558-76.026 100.989-9.078 15.035-19.006 50.495-8.51 37.162 6.241-12.2 17.872-28.651 35.176-49.36 11.063-11.914 22.127-24.4 32.623-37.162 29.219-35.743 43.4-66.1 43.4-90.21.287-21.564-7.089-28.94-28.365-29.507Zm-340.411 588.632c-23.829.567-36.027-5.39-36.027-16.453 14.468-26.1 52.2-7.659 64.4 13.617-10.788 1.985-19.865 3.404-28.373 2.836Z" fill-rule="evenodd"/><path data-name="Path 8551" d="M1050.166 11751.104c11.631 0 22.127 7.092 30.921 20.141 9.078 13.9 15.6 31.2 19.006 53.048.567 6.525 1.418 5.957 3.12-.284 1.7-13.049 6.525-32.907 13.333-59.572 5.957-14.184 23.545-42.268 39.431-20.992 4.255 5.957 6.241 10.212 6.241 13.617 0 4.255-7.092 20.709-8.51 20.425-1.7 0-8.51-14.184-17.588-15.035-7.943.284-15.6 20.425-22.694 60.991-2.837 17.588-6.525 30.07-10.212 37.162-2.837 4.822-5.674 9.645-6.808 7.376-.284-7.659-20.425-73.189-27.517-73.189a5.224 5.224 0 0 0-3.971 1.7c-.567 1.418-2.553 2.269-5.39 1.7-6.808.567-24.68-13.9-25.247-21.56.851-3.4 14.184-25.531 15.886-25.531Z" fill-rule="evenodd"/><path data-name="Path 8552" d="M919.958 11848.122c7.659-9.929 14.184-16.453 16.453-17.021 4.255-.567-8.794 20.141-9.645 21.843-30.07 56.736-42.268 93.9-38.3 108.932 3.12 29.5 29.786 28.652 43.686 12.766 3.688-4.539 7.092-20.708 8.794-21.276 7.376 1.418 5.957 81.7-36.311 94.181-74.891 4.539-27.233-144.676 15.319-199.426Z" fill-rule="evenodd"/><path data-name="Path 8553" d="M1453.556 11822.023c.567-1.135-46.807-34.609-52.48-37.729-2.837 2.269-27.517 43.686-26.382 43.686 16.17 11.063 38.013 26.1 52.48 38.3 1.135-1.135 23.545-37.729 26.382-44.254Z" fill-rule="evenodd"/><path data-name="Path 8554" d="M1370.722 11824.293c.567-1.135-46.807-34.609-52.48-37.729-2.837 2.269-27.517 43.686-26.382 43.686 16.17 11.063 38.013 26.1 52.481 38.3 1.135-1.135 23.545-37.729 26.382-44.254Z" fill-rule="evenodd"/><path data-name="Path 8555" d="M1373.843 12371.508c.567-1.135-46.807-34.609-52.48-37.729-2.837 2.269-27.517 43.686-26.382 43.686 16.17 11.063 38.013 26.1 52.48 38.3 1.135-1.135 23.545-37.729 26.382-44.254Z" fill-rule="evenodd"/><path data-name="Path 8556" d="M1291.009 12373.777c.567-1.135-46.807-34.609-52.48-37.729-2.837 2.269-27.517 43.686-26.382 43.686 16.17 11.064 38.013 26.1 52.48 38.3 1.135-1.135 23.545-37.729 26.382-44.254Z" fill-rule="evenodd"/><path data-name="Path 8557" d="M1599.367 12136.055c.567-1.135-46.807-34.609-52.481-37.729-2.837 2.269-27.517 43.686-26.382 43.686 16.17 11.063 38.013 26.1 52.48 38.3 1.135-1.135 23.545-37.729 26.382-44.254Z" fill-rule="evenodd"/><path data-name="Path 8558" d="M1516.816 12138.324c.567-1.135-46.807-34.609-52.481-37.729-2.836 2.27-27.517 43.686-26.382 43.686 16.17 11.063 38.013 26.1 52.48 38.3.851-1.135 23.545-37.729 26.382-44.254Z" fill-rule="evenodd"/><path data-name="Path 8559" d="M1132.721 12041.307c-6.808 20.992-11.063 41.984-11.063 62.409 0 19.574 8.51 34.325 25.815 44.821 22.127 15.035 88.791 20.141 117.726 26.1 19.006 5.39 28.935 11.063 28.935 17.3-1.419 3.971-17.021 25.815-51.346 47.374-78.011 49.643-151.484 80.848-245.665 80.848-155.172-2.553-144.392-148.647-95.032-251.906 3.688-7.943 5.39-14.184 5.39-17.872 0-.567 0-1.135-1.135-1.7-2.553.567-6.808 5.39-13.617 15.319-69.218 106.379-87.657 318 96.167 322.258 105.528 0 219.85-58.721 296.443-129.357 23.829-22.127 35.46-55.885 35.46-87.373 0-19.006-5.39-32.623-16.453-41.133-32.625-25.53-155.743-23.26-155.743-60.421a19.7 19.7 0 0 1 1.7-7.659c.567-1.418.567-3.4.567-5.957 6.241-30.07 53.9-85.671 78.3-86.522 14.751-4.823 22.694 50.495 51.346 68.366 50.495 42.268 115.173 7.376 144.392-45.388 1.418 23.262 22.127 41.417 45.672 44.821 20.425 3.121 53.331-6.808 67.8-31.488 12.2-21.843 25.531-80.565 1.986-113.471-1.135.851-20.425 43.686-20.425 43.686.284 1.418 11.347 28.935 11.347 32.623-4.255 7.376-13.049 11.063-27.233 11.063-7.659 0-25.815.284-33.19-3.4a47.075 47.075 0 0 1-9.078-6.241c-28.368-22.127 11.063-60.423-6.241-62.409-3.971-.567-38.3 57.019-42.268 62.693-29.219 34.325-91.911 34.892-117.726 4.255-28.368-41.133-15.886-72.905-49.644-63.26-55.317 15.886-96.45 76.026-113.188 131.627Z" fill-rule="evenodd"/><path data-name="Path 8560" d="M1059.811 12112.511c0 3.688-3.971 11.063-12.765 22.978-9.361 13.333-18.439 23.262-26.949 29.219-5.39 3.971-23.545 10.213-54.466 18.439-11.063 3.12-9.361 2.269-2.269-3.4 3.971-2.837 15.035-9.078 32.623-19.006 17.3-9.078 27.233-15.035 30.354-17.588.567-.567.851-.851.851-1.418 0-10.212-69.785 0-70.352-3.4l30.354-35.46c9.644-6.819 72.619-8.804 72.619 9.636Z" fill-rule="evenodd"/><path data-name="Path 8561" d="m1504.902 11702.878-5.39-3.4-5.674-3.4c-3.971-2.269-7.659-4.539-11.631-6.525l-23.828-12.775c-16.17-8.227-32.623-15.886-49.36-23.262a881.533 881.533 0 0 0-102.408-36.875 760.651 760.651 0 0 0-106.1-22.978c-17.872-2.553-36.027-4.539-53.9-5.674-18.155-1.135-36.027-1.418-54.182-1.135-72.049 1.424-143.82 15.887-209.916 44.254l-6.246 2.554-6.241 2.837c-3.972 1.986-8.227 3.688-12.2 5.674-7.943 3.972-16.17 7.943-24.113 12.482-15.886 8.51-31.2 18.155-46.24 28.084a693.667 693.667 0 0 0-84.536 68.083c-25.531 24.4-47.091 53.048-64.679 84.252a445.871 445.871 0 0 0-40 99.571c-18.439 69.785-21.56 143.541-11.631 215.6a618.67 618.67 0 0 0 66.948 206.8c34.334 64.39 80.292 122.545 135.892 169.919 55.6 47.658 120.28 83.969 189.5 107.8a652.616 652.616 0 0 0 106.663 26.949 588.508 588.508 0 0 0 54.75 6.808c9.078.851 18.439 1.418 27.517 1.986l13.9.851 13.9.568a958.674 958.674 0 0 0 220.418-19.29c72.338-15.035 143.257-38.58 209.922-70.92a870.593 870.593 0 0 0 96.451-54.75c15.318-10.213 30.637-20.992 45.388-32.339 7.376-5.39 14.468-11.347 21.843-17.3l10.5-9.078c3.688-2.837 7.092-5.957 10.5-9.078a766.437 766.437 0 0 0 143.541-169.072 741.418 741.418 0 0 0 51.629-98.72l5.39-12.766 5.106-13.049 2.553-6.525 2.27-6.525 4.823-13.049c5.957-17.588 11.631-35.46 16.453-53.332 19.574-71.771 28.651-146.378 29.5-220.985a922.152 922.152 0 0 1-5.957 111.769c-.851 9.361-2.553 18.439-3.688 27.8-1.418 9.361-3.12 18.439-4.539 27.517-3.688 18.439-7.375 36.594-12.2 54.75-4.539 18.155-9.929 36.027-15.886 53.9l-4.539 13.333-2.27 6.525-2.553 6.525-5.107 13.049-5.39 13.049c-14.184 34.609-31.488 68.083-50.495 100.138a758.221 758.221 0 0 1-142.69 172.76c-3.4 3.121-6.808 6.241-10.5 9.361l-10.5 9.078c-7.376 5.957-14.468 11.914-21.843 17.588-14.751 11.631-30.07 22.694-45.389 33.19a876.932 876.932 0 0 1-97.018 57.019c-67.232 33.757-138.719 58.438-212.191 74.891a990.288 990.288 0 0 1-224.103 22.688c-75.175-.567-151.2-11.063-223.255-34.892s-140.137-60.707-198.575-109.5c-58.721-48.793-107.514-108.932-144.392-175.6a644.463 644.463 0 0 1-72.905-215.6c-11.347-75.458-9.361-153.47 9.361-228.361a468.152 468.152 0 0 1 41.7-108.081 387.273 387.273 0 0 1 69.785-93.614 707.171 707.171 0 0 1 88.508-73.473c15.886-10.78 32.056-21.276 48.793-30.637 8.227-4.823 17.021-9.078 25.531-13.617 4.255-2.269 8.794-4.255 13.049-6.241l6.525-3.12 6.525-2.837a571.7 571.7 0 0 1 109.783-36.018c18.723-4.255 38.013-7.376 57.019-9.929 19.006-2.269 38.3-3.971 57.587-4.539s38.58-.567 57.587.567c19.29.851 38.3 2.837 57.3 5.106a842.21 842.21 0 0 1 112.62 22.694 905.12 905.12 0 0 1 108.368 37.447c17.588 7.376 35.176 15.319 52.2 23.829 8.51 4.255 17.021 8.51 25.531 13.333 4.255 2.269 8.51 4.539 12.766 7.092l6.241 3.688c2.269 1.418 4.255 2.553 6.525 3.972Z"/></g></g></svg>