<svg xmlns="http://www.w3.org/2000/svg" width="1920" height="1080"><defs><clipPath id="a"><path data-name="Rectangle 9111" transform="translate(1 12604)" fill="#fff" d="M0 0h1920v1080H0z"/></clipPath></defs><g data-name="Mask Group 36" transform="translate(-1 -12604)" clip-path="url(#a)"><g data-name="Group 2" fill="#707070"><path data-name="Path 5" d="M1515.127 12663.86c-1.368-1.368-1.368-4.1 0-6.841l32.837-64.305c1.368-4.1 4.1-5.473 5.473-5.473 2.736 0 17.787 8.209 42.414 26s36.941 27.364 36.941 31.468c0 10.946-10.946 34.2-32.837 68.41q-4.1 6.157-8.209 4.1a551.945 551.945 0 0 0-76.619-53.359Z" opacity=".1"/><path data-name="Path 6" d="M1214.125 12789.734c-8.214 5.472-12.314 8.211-12.314 10.945a1.34 1.34 0 0 0 1.368 1.368c2.736 0 6.841-1.368 15.05-4.1 45.15-16.418 71.146-26 75.251-28.732 21.891-9.577 45.15-24.627 71.146-43.782 23.259-16.418 41.046-35.573 56.1-56.1 12.314 8.209 20.523 13.682 24.627 19.155 13.682-16.418 19.155-28.732 19.155-35.573q-6.157-8.209-24.627-20.523c5.473-19.155 8.209-35.573 8.209-50.623 0-16.418-4.1-26-13.682-30.1-10.945-4.1-24.627 1.368-42.414 16.418-16.418 15.05-24.627 31.468-24.627 50.623 0 15.05 13.682 30.1 39.678 43.782-20.523 20.523-50.623 43.782-90.3 68.41-34.211 19.154-68.415 39.677-102.62 58.832Zm176.497-190.179q0-4.1 8.209-8.209c5.473-2.736 9.577-5.473 12.314-5.473 6.841 0 10.946 4.1 12.314 13.682 1.368 8.209 1.368 16.418-1.368 24.627-20.524-9.577-31.469-17.786-31.469-24.627Z" opacity=".1"/><path data-name="Path 7" d="M1350.944 13196.087c-8.214 5.473-12.314 8.212-12.314 10.946a1.34 1.34 0 0 0 1.368 1.368c2.736 0 6.841-1.368 15.05-4.1 45.15-16.418 71.146-26 75.251-28.732 21.891-9.577 45.15-24.627 71.146-43.782 23.259-16.418 41.046-35.573 56.1-56.1 12.314 8.209 20.523 13.682 24.627 19.155 12.314-16.418 17.787-28.732 17.787-35.573q-6.157-8.209-24.628-20.523c5.473-19.155 8.209-35.573 8.209-50.623 0-16.418-4.1-26-13.682-30.1-10.945-4.1-24.627 1.368-42.414 16.418-16.418 15.05-24.628 31.468-24.628 50.623 0 15.05 13.682 30.1 39.678 43.782-20.523 20.523-50.623 43.782-90.3 68.41-32.841 17.786-67.045 38.309-101.25 58.831Zm176.5-191.547q0-4.1 8.209-8.209c5.473-2.736 9.577-5.473 12.314-5.473 6.841 0 10.946 4.1 12.314 13.682 1.368 8.209 1.368 16.418-1.368 24.628-20.527-9.577-31.472-17.787-31.472-24.628Z" opacity=".1"/><path data-name="Path 8" d="M1070.464 12817.098h5.468c16.418 0 30.1-24.627 39.678-72.514l-2.736-2.736h-1.364c-10.946 23.259-21.891 34.2-31.468 34.2-13.682 0-19.155-13.682-19.155-39.678q0-24.627 28.732-119.033h-2.737c-30.1 51.996-45.15 97.147-45.15 138.193v20.522a78.521 78.521 0 0 0 1.368 16.418c6.841 16.419 15.05 24.628 27.364 24.628Z" opacity=".1"/><path data-name="Path 9" d="M1838.021 13323.329c-10.946-10.946-34.2-26-71.146-46.519-27.364-15.05-56.1-36.941-88.933-65.673 8.209 1.368 16.418 2.736 24.628 2.736 16.418 1.368 23.259-2.736 23.259-9.577 0-5.473-5.473-9.577-17.787-15.05l-93.035-50.623c-9.577-5.473-16.418-8.209-19.155-8.209s-5.473 5.473-6.841 15.05c-6.841 30.1-8.209 53.36-5.473 72.514-21.891 20.523-39.678 45.15-56.1 75.251a291.8 291.8 0 0 0-31.469 132.715c0 26 6.841 50.623 19.155 75.251-21.891 10.946-50.623 15.05-84.828 15.05v1.368c-23.259 0-41.046-4.1-51.991-10.946-23.259-15.05-38.309-45.15-46.519-93.037-19.155-109.456-34.2-194.284-46.519-255.852-2.736-13.682-5.473-26-8.209-39.678l-53.351 57.464c17.787 67.041 26 114.928 26 146.4 0 13.682-2.736 24.628-6.841 31.469 0 1.368-5.473 9.577-17.787 24.627-38.309 50.623-90.3 99.878-158.71 145.028-87.564 60.2-168.288 90.3-243.538 90.3-53.36 0-80.723-27.364-80.723-82.092 0-38.31 10.946-93.037 31.468-165.551 4.1-10.945 5.473-17.786 5.473-23.259 0-4.1-1.368-5.473-2.736-5.473-4.1 0-8.209 8.209-15.05 23.259-26.006 77.985-41.056 149.128-41.056 218.909 0 35.573 8.209 65.673 23.259 90.3 17.787 30.1 43.782 43.782 79.355 43.782q100.562 0 221.647-77.987c69.778-45.15 129.978-97.142 179.233-158.71 24.628-30.1 41.046-69.778 49.255-117.664 9.577 60.2 15.05 99.878 19.155 120.4 9.577 57.464 28.732 95.774 57.464 117.665 20.523 15.05 47.887 21.891 83.46 21.891v-1.368c24.627 0 51.991-8.209 84.828-21.891 31.468-15.05 60.2-31.468 83.46-50.623 49.255 16.418 99.878 23.259 151.869 23.259 32.837 0 56.1-4.1 72.515-13.682 10.945-6.841 20.523-17.787 31.469-35.573 15.05-24.627 21.891-56.1 21.891-94.405 1.368-39.675-12.314-73.882-41.046-101.246Zm-225.752 127.242c-20.523-4.1-39.677-10.946-56.1-20.523-21.891-13.682-32.837-28.732-32.837-47.887 0-21.891 10.945-45.15 34.2-71.146s42.414-39.678 57.464-39.678c9.577 0 21.891 10.945 35.573 34.2 15.05 23.259 21.891 45.15 21.891 67.041.01 28.738-20.513 54.734-60.191 77.993Zm175.129 30.1c-31.469 0-68.41-5.473-108.087-15.05q28.732-75.935 28.732-131.347c13.682 13.682 36.941 30.1 73.883 50.623 31.468 19.155 50.623 32.837 57.464 42.414 9.577 13.682 13.682 23.259 13.682 31.468-1.365 15.051-23.265 21.893-65.674 21.893Z" opacity=".1"/><path data-name="Path 10" d="M1173.079 13029.168c15.05-16.418 34.2-36.941 57.464-62.937-20.522-50.623-45.15-93.038-73.883-129.979-6.839-8.208-10.945-6.841-13.681 6.841-2.737 10.946-5.473 27.364-9.578 49.251-4.1 24.628-5.473 36.941-4.1 39.678 17.782 35.577 31.464 67.045 43.778 97.146Z" opacity=".1"/><path data-name="Path 11" d="M1047.205 13253.551c38.309 0 99.878-41.046 123.137-67.042 47.889-50.623 110.824-127.241 151.87-165.551 50.619-47.886 171.019-138.187 240.802-138.187 38.31 0 67.041 17.786 86.2 51.991 4.1 6.841 6.841 9.577 9.577 9.577 1.368 0 2.736-2.736 5.473-9.577 9.577-20.523 13.682-43.782 13.682-69.778 0-21.891-9.577-39.678-28.732-56.1s-41.05-23.255-68.414-23.255q-137.5 0-311.948 188.811c-27.364 28.732-90.3 98.51-127.242 136.819-43.779 47.887-90.301 65.67-125.874 65.67q-34.889 0-53.36-24.627c-12.314-15.05-17.787-35.573-17.787-61.569 0-34.2 10.946-79.355 32.837-138.187s32.837-93.037 32.837-102.615a5.026 5.026 0 0 0-1.368-4.1c-2.736 0-6.841 5.473-12.314 15.05-50.623 98.509-75.25 177.864-75.25 239.432 0 43.782 12.314 80.723 38.309 110.824 24.628 28.732 53.36 42.414 87.565 42.414Z" opacity=".1"/><path data-name="Path 12" d="M1074.569 13376.689a200.152 200.152 0 0 0 13.682-43.782c1.368-12.314-1.368-21.891-6.841-26l-2.736-2.736c-8.209-4.1-20.523-1.368-35.573 8.209-1.368 0-1.368 1.368-2.736 1.368-16.418 10.946-24.627 24.628-27.364 41.046-1.368 13.682 8.209 27.364 30.1 42.414-13.682 16.418-39.678 38.309-77.987 62.937-34.2 23.259-62.937 41.046-83.46 50.623 49.255-41.046 75.251-76.619 79.355-109.455 4.1-28.732-8.209-43.782-35.573-47.887-10.946-1.368-23.259 4.1-36.941 15.05-15.05 12.314-23.259 26-24.627 39.678-1.368 15.05 2.736 28.732 13.682 41.046s16.418 21.891 15.05 27.364a5.027 5.027 0 0 1-1.368 4.1c-15.05 15.05-31.468 31.469-49.255 46.518-6.842 6.849-10.947 10.954-12.315 13.69q0 2.053 4.1 4.1c4.1 0 9.577-1.368 19.155-4.1 87.564-31.469 155.974-76.619 203.861-135.451 10.946 8.209 16.418 15.05 19.155 20.523 12.314-13.682 17.787-23.259 19.155-30.1-2.733-4.105-9.574-10.946-20.519-19.155Zm-186.075 43.783c-5.473-6.841-8.209-12.314-6.841-17.786 0-4.1 4.1-8.209 10.946-12.314a38.61 38.61 0 0 1 20.523-5.473c21.891 2.736 32.837 13.682 30.1 32.837-1.368 15.05-17.787 35.573-46.519 61.569 8.209-15.05 9.577-27.364 4.1-38.309q-2.047-6.158-12.309-20.524Zm172.392-51.991c-17.786-10.946-26-20.523-24.627-26 0-2.736 2.736-5.473 8.209-6.841s9.577-2.736 10.946-2.736c5.473 1.368 9.577 5.473 9.577 12.314a34.094 34.094 0 0 1-4.104 23.262Z" opacity=".1"/></g></g></svg>