<svg xmlns="http://www.w3.org/2000/svg" width="1960.498" height="1101.513"><g data-name="Group 1874" opacity=".15" fill="#707070"><g data-name="Group 1572" fill-rule="evenodd"><path data-name="Path 8562" d="M1685.022 642.966c2.822-3.69 5.426-6.295 6.294-6.512 1.52-.217-3.255 7.6-3.69 8.248-11.288 21.489-16.062 35.6-14.543 41.242 1.085 11.07 11.287 10.853 16.5 4.775 1.3-1.737 2.822-7.814 3.473-8.031 2.823.651 2.171 31.04-13.674 35.6-28.654 2.171-10.637-54.483 5.643-75.321Z"/><path data-name="Path 8563" d="M1670.478 983.323c-.868-.434 5.644-4.341 6.078-4.775 15.629-8.032 37.986-29.521 48.839-42.762 9.551-10.854 28.219-28 42.979-28.435 7.814.651 5.427 6.512 11.287 7.163 6.947.218 12.807-7.38 16.28-13.024.651-.868 3.256-5.861 3.256-1.953 0 1.519-1.518 5.861-2.822 8.9-.434 1.519 4.342 1.519 12.155 1.519.869.217 1.52-.217 1.52-.651.217 0-.434-3.256-1.736-7.163 1.3-1.737 5.209-8.9 5.209-8.9 1.954 1.954 2.822 4.775 2.822 8.248 0 4.341-2.6 16.714-6.511 18.668-3.691 2.6-11.722.217-19.1-3.474-6.295 6.3-9.985 11.071-16.063 11.071-6.511 0-7.38-7.163-13.891-6.512-10.2.217-19.97 8.032-30.824 18.233-7.6 8.248-20.187 19.536-28.219 27.567-6.295 5.644-23.008 16.28-31.257 16.28Z"/><path data-name="Path 8564" d="M1301.252 399.855c-2.387 0-1.085-6.946.217-13.892.868-5.861 4.775-32.994 4.775-42.545 0-30.606-14.76-71.2-51.661-91.6l13.241-24.746c33.645 25.4 48.405 59.692 50.793 103.105-.217 7.6-8.465 69.677-17.365 69.677Z"/><path data-name="Path 8565" d="M1262.831 483.858c2.822-3.69 5.426-6.295 6.295-6.512 1.52-.217-3.256 7.6-3.69 8.249-11.287 21.489-16.063 35.6-14.544 41.242 1.085 11.07 11.288 10.853 16.5 4.775 1.3-1.737 2.822-7.814 3.473-8.031 2.822.651 2.171 31.04-13.674 35.6-28.653 1.954-10.636-54.483 5.643-75.321Z"/><path data-name="Path 8566" d="M1256.102 789.268c-4.341 1.953-6.946 7.814-8.249 17.582 0 2.17.217 3.256.434 3.256.434 0 1.519-1.085 3.473-3.69 1.954-2.388 3.473-3.69 4.341-3.69 2.17 0 4.559 1.3 6.512 3.473-5.643 1.736-9.334 3.473-11.5 4.992-4.125 3.69-6.512 9.334-6.512 16.931 0 2.388 1.519 11.07 4.559 26.482s4.558 28.436 4.341 39.506c.217 6.512.434 9.768 1.085 9.768.434 0 1.086-1.086 1.52-3.039a58.407 58.407 0 0 0 2.6-16.931c.217-18.885-3.473-37.986-10.637-57.522 2.388-2.6 6.512-4.776 11.939-6.729 4.558-1.085 9.333-2.6 13.892-3.69.651-.217 1.52-1.736 3.039-4.992 1.3-3.039 2.171-4.992 1.954-5.861-.435-2.6-3.039-6.077-8.032-9.985q-7.163-5.861-11.722-6.512a55.906 55.906 0 0 0 4.558-16.5c3.256-17.582 6.946-26.482 10.636-26.7 1.737.217 3.256 1.3 4.993 3.69 1.519 2.171 2.6 3.473 3.038 3.256 1.3.217 2.171-1.085 3.039-3.69a15.022 15.022 0 0 0 1.085-4.559c0-1.519-.868-3.69-2.821-6.078-2.171-2.822-4.341-4.124-6.512-4.341-4.125.217-8.249 4.341-11.722 12.59-3.255 11.722-5.427 20.621-6.078 26.482-.217 1.085-.434 1.737-.651 1.737 0 .217-.217.217-.434 0 .217-.217 0-.869-.217-1.737-1.52-9.985-4.559-18.016-8.683-24.528-4.125-6.3-8.9-9.334-14.326-9.551-.434.217-1.737 1.954-3.69 5.426-2.171 3.69-3.256 5.861-3.473 6.3.217 1.3 1.3 3.256 3.907 5.644 2.6 2.171 4.558 3.473 6.078 3.256q2.28.326 2.6-.651a2.983 2.983 0 0 1 1.737-1.085c1.519.217 4.124 4.124 7.381 12.373 3.038 7.38 5.426 13.892 6.511 19.319Z"/><path data-name="Path 8567" d="M832.176 342.55c.434-.868-35.816-26.482-40.156-28.87-2.171 1.737-21.056 33.428-20.187 33.428 12.373 8.465 29.086 19.97 40.157 29.3.868-.868 18.016-28.87 20.187-33.862Z"/><path data-name="Path 8568" d="M968.493 666.844c.434-.868-35.816-26.482-40.157-28.87-2.171 1.736-21.055 33.428-20.187 33.428 12.372 8.465 29.087 19.97 40.157 29.3.868-.868 18.016-28.87 20.187-33.862Z"/><path data-name="Path 8569" d="M905.11 668.581c.434-.869-35.816-26.482-40.157-28.87-2.171 1.737-21.056 33.428-20.187 33.428 12.372 8.465 29.086 19.97 40.157 29.3.868-.868 18.016-28.87 20.187-33.862Z"/><path data-name="Path 8570" d="M978.477 345.154c7.163 0 13.675 4.341 19.319 12.59 5.644 8.466 9.768 19.536 11.721 32.994.434 4.124.869 3.69 1.953-.217 1.086-8.248 3.908-20.4 8.466-37.118 3.69-8.9 14.543-26.265 24.529-13.024 2.6 3.69 3.907 6.295 3.907 8.466 0 2.6-4.341 12.807-5.427 12.807s-5.21-8.9-10.854-9.334c-4.992.217-9.768 12.807-14.109 37.986-1.737 10.853-3.907 18.668-6.295 23.009-1.736 3.039-3.473 6.078-4.124 4.559 0-4.776-12.59-45.584-17.148-45.584a3.1 3.1 0 0 0-2.387 1.085c-.434.868-1.52 1.3-3.473 1.085-4.341.434-15.412-8.465-15.846-13.241.217-2.388 8.682-16.063 9.768-16.063Z"/><path data-name="Path 8571" d="M1674.168 427.639c7.163 0 13.675 4.341 19.318 12.59 5.643 8.465 9.768 19.536 11.722 32.994.434 4.124.869 3.69 1.954-.217 1.085-8.248 3.907-20.4 8.465-37.118 3.69-8.9 14.543-26.265 24.528-13.024 2.605 3.69 3.908 6.295 3.908 8.466 0 2.6-4.342 12.807-5.427 12.807s-5.209-8.9-10.853-9.334c-4.992.217-9.768 12.807-14.109 37.986-1.736 10.853-3.907 18.667-6.295 23.009-1.737 3.039-3.473 6.078-4.124 4.558 0-4.775-12.59-45.583-17.148-45.583a3.094 3.094 0 0 0-2.387 1.085c-.435.868-1.52 1.3-3.473 1.085-4.341.434-15.412-8.465-15.846-13.241.434-2.388 8.683-16.063 9.768-16.063Z"/><path data-name="Path 8572" d="M1655.284 547.893a186.234 186.234 0 0 0-8.032 20.4c72.934-28.87 227.049-87.911 280.881-107.664 2.171-1.736 7.814-15.412 7.38-16.5a45.754 45.754 0 0 0-4.776 1.085c-63.6 23.66-216.413 81.182-275.454 102.672Z"/><path data-name="Path 8573" d="M1831.539 588.267c-2.171 4.992-19.319 32.994-20.187 33.645-11.07-9.117-27.784-20.621-40.157-29.3-1.086 0 18.016-31.474 20.187-33.428 4.341 2.6 40.591 28 40.157 29.087Z"/><path data-name="Path 8574" d="M1880.379 650.13c.434-.868-35.816-26.482-40.158-28.87-2.171 1.737-21.055 33.428-20.186 33.428 12.372 8.465 29.086 19.97 40.157 29.3.868-.868 18.016-29.086 20.187-33.862Z"/><path data-name="Path 8575" d="M1817.214 651.65c.434-.868-35.816-26.482-40.157-28.87-2.171 1.736-21.055 33.428-20.187 33.428 12.373 8.466 29.087 19.97 40.157 29.3.651-.868 18.016-28.87 20.187-33.862Z"/><path data-name="Path 8576" d="M1370.929 198.202c0-14.76-2.387-27.133-6.946-37.118 0-5.21 4.341-18.016 13.024-38.637 1.086-2.388 1.954-3.69 2.822-3.69s2.171 1.3 3.257 3.69c2.6 5.427 8.248 20.187 17.364 44.064 9.551 25.179 16.5 46.452 18.017 52.1 1.085 4.775 1.953 8.031 1.953 9.768 0 6.946-8.03-2.822-21.272-18.233-1.736-1.954-2.387-.868-2.387 3.039q0 2.279 10.2 144.131c6.729 94.857 10.2 212.072 10.2 223.793 0 36.467-5.644 68.375-16.931 96.159-1.519 2.171-4.124-3.256-4.124-13.892-1.3-111.137-11.287-248.322-13.891-282.835-7.164-108.315-11.288-169.093-11.288-182.334Z"/><path data-name="Path 8577" d="M1520.27 403.762c-1.519-5.21-9.552-23.66-18.885-49.057-9.333-23.877-14.977-38.42-17.8-44.064-.869-2.822-2.388-4.124-3.256-4.124-1.519 0-15.846 36.9-15.846 42.762 5.21 11.07 6.513 24.962 6.513 37.118 2.6 84.655 11.5 230.956 11.5 340.139 0 26.7-14.327 37.986-45.367 50.576a43.011 43.011 0 0 1-4.992 1.3c-1.954-19.536-26.266-62.3-58.391-61.863-33.645 1.3-54.917 41.893-54.917 71.848 0 25.4 18.667 42.762 55.785 42.111 17.365-.434 27.35-4.776 36.9-7.6 3.907 3.473 6.729 13.458 6.729 18.451 0 10.853-26.482 31.908-33.645 38.854-39.723 32.994-96.81 71.631-154.767 75.538-90.733 0-68.81-80.1-52.312-138.7 1.3-4.776 1.954-8.031 1.954-10.853 0-.868-.868-3.256-2.605-2.822-1.3.434-3.256 4.124-6.512 11.721-24.311 61.212-45.584 186.458 55.568 186.458 67.507 0 167.139-83.135 193.187-120.253 7.381-14.977 14.326-45.8 15.2-61.429l1.953-.217 1.954-.217v-.434c37.118-12.373 43.413-25.4 56-58.173 8.9-23.443 11.939-55.351 11.939-81.182-2.388-85.74-8.683-242.461-9.117-278.059 0-3.69.868-4.775 2.387-2.822 18.672 19.97 30.828 36.467 20.843 4.993Zm-150.859 378.777c-18.234.434-27.568-4.124-27.568-12.59 11.07-19.97 39.94-5.861 49.274 10.419-8.032 1.736-14.978 2.605-21.706 2.171Z"/><path data-name="Path 8578" d="M1610.135 866.326c71.2 50.142 130.238-49.056 136.967-49.707-1.52 13.892-1.52 22.792 5.643 33.645 29.955 34.513 82.7 1.085 102.454-34.731 2.171 33.211 54.917 52.53 79.012 11.722 7.6-13.458 11.287-29.955 11.287-49.707 0-6.295-6.3-26.048-12.373-29.3-.868.651-15.629 34.947-15.629 34.947.217 1.086 11.287 12.59 11.287 15.629-3.256 5.644-9.985 8.465-20.838 8.465-8.466 0-17.8-2.822-24.529-8.9-21.706-16.931 8.466-46.235-4.776-47.754-3.038-.434-29.3 43.63-32.342 47.971-17.582 20.621-43.629 30.172-69.677 12.807-8.9-5.861-13.459-14.109-13.459-25.179a47.737 47.737 0 0 1 2.828-15.629c3.907-11.287-5.86-9.117-11.938-3.907-26.916 36.684-74.887 92.469-130.022 57.956-13.674-8.9-18.884-28-21.489-43.2-1.085-7.163-3.039-51.444-5.427-133.06-2.171-85.74-4.775-142.828-8.031-172.132-5.211-46.235-12.373-79.228-22.575-98.981-1.736-2.822-2.821-4.558-3.69-4.775-1.086.651-13.024 37.986-13.024 39.94a475.714 475.714 0 0 1 18.451 90.95c2.171 20.187 4.341 74.019 6.945 161.93q3.908 121.122 8.032 146.3c4.775 27.133 13.675 45.149 26.916 54.7Z"/><path data-name="Path 8579" d="M1335.981 622.563c-15.628-13.024-46.885-6.078-65.987 1.736-25.831 10.636-42.979 24.962-61.43 41.676l-20.838 20.187c-6.729 7.6-21.272 25.614-26.482 33.428-5.643 8.465-10.636 16.931-16.28 23.877-27.567 33.645-77.492 21.924-57.522-61 2.388-10.2 12.156-44.932 17.8-56.437a2.141 2.141 0 0 0-1.519-3.039 2.052 2.052 0 0 0-2.388 1.3c-1.519 3.69-3.473 7.38-5.209 11.287-2.388 5.21-3.907 8.9-5.861 13.892a153.743 153.743 0 0 0-8.9 30.389c-6.512 29.955-12.155 74.453-.651 104.842 2.6 6.946 15.194 17.148 21.272 19.536 24.528 9.985 45.149-13.892 53.615-24.745 8.031-10.2 9.333-12.807 16.279-23.226 5.427-8.466 11.5-15.846 16.931-23.443a67.852 67.852 0 0 1 9.334-9.985c9.985-9.333 14.76-17.365 32.125-29.52 15.846-10.854 31.692-23.877 52.964-29.738 9.768-2.822 26.482-3.473 36.033-.868 13.675 3.907 13.675 9.768 19.1 22.575 4.125-3.039 7.163-24.963 7.6-30.606.217-13.017-2.388-25.823-9.986-32.118Z"/><path data-name="Path 8580" d="M1330.338 15c-63.817.434-263.733 102.888-314.744 147.821-10.636 9.551-15.629 31.691-15.845 73.8.434 3.039 10.419 10.636 13.458 12.156 14.761 20.621 34.948 40.374 59.91 58.607 11.287 8.248 34.3 23.66 69.895 46.018a473.384 473.384 0 0 1 62.948 47.537c10.854 10.2 16.931 26.482 6.946 32.125-12.59 9.334-36.684 16.714-74.019 26.265v-.217c-11.07 3.256-37.769 10.2-59.692 5.644-.434-.217-3.907 12.156-4.342 16.5-1.953-1.085-3.69-3.69-4.992-3.907-2.6.217-4.776 4.775-7.814 9.768-3.69 8.031-7.6 15.629-11.5 23.226-6.3 12.156-13.893 21.272-22.575 27.567-11.07 8.466-23.877 12.807-39.072 13.241-17.582 0-29.521-7.163-36.032-21.706-3.69-8.248-7.6-26.265-11.07-54.7-3.69-30.389-8.9-54.7-15.629-73.151-3.907-10.853-12.373-18.451-15.412-19.319-2.821-.651-7.814 12.156-8.9 26.048-1.52 36.25-14.11 52.964-35.164 53.615-14.76.651-28.436-2.6-33.645-8.031-2.171-1.953-5.21-7.814-9.334-16.931-2.388-5.21-4.992-11.5-6.729-11.5-.868.651-12.156 37.769-12.156 42.11 0 3.256 1.3 7.814 4.124 13.024 14.76 29.521 22.358 57.3 22.358 83.353-16.28 41.459-112.873 92.252-154.767 114.827-71.414 38.854-110.051 55.134-191.885 87.694-16.714 8.031-24.962 12.373-24.962 13.458 0 .434.651.434 1.954.434-.868 3.907 149.34-33.428 149.34-33.428 38.42-4.558 182.551-93.555 209.033-125.463 16.931-19.536 24.962-56 24.962-113.091 2.171 1.085 11.722 1.519 20.838.217a27.884 27.884 0 0 0 7.38-1.519c14.761-5.427 25.18-25.179 31.257-59.476q1.628-9.442 5.21-9.768c2.822.217 5.427 5.21 8.031 15.195 2.822 10.853 6.078 33.211 9.551 67.507 3.039 25.831 7.814 44.064 13.892 54.7 9.116 14.326 23.877 21.706 44.064 22.357h3.473c32.777-1.519 55.785-23.66 69.027-67.073 4.342 31.908 40.374 70.112 73.367 70.112 24.094 0 43.2-31.691 43.2-53.615 0-18.233-11.287-37.335-26.482-47.754 28.652-6.729 50.576-18.233 59.692-26.916 15.412-13.458 21.924-42.762 21.924-69.243 0-26.048-19.97-47.537-39.072-62.732-11.721-9.334-38.2-26.265-79.228-50.576-33.428-19.753-55.134-35.816-64.9-48.405 4.559.651 19.536 3.69 20.621-.217 0-3.039.651-6.512-11.939-13.675l-41.459-21.055c-2.388-1.085-2.6-2.822-.651-4.775 50.567-40.383 240.932-144.79 298.237-145.441 14.327.217 21.272 2.822 21.272 8.031a5.43 5.43 0 0 1-.651 2.822c-15.629 27.784-41.677 47.1-58.173 77.275-6.946 11.5-14.543 38.637-6.512 28.435 4.775-9.334 13.675-21.923 26.916-37.769 8.465-9.117 16.931-18.668 24.962-28.435 22.357-27.35 33.21-50.576 33.21-69.026.219-16.497-5.208-22.141-21.705-22.575Zm-195.357 538.536c-15.195 0-46.018-24.094-46.886-33.428 0-1.736 2.822-2.171 8.248-1.3 13.675 2.388 41.459 14.977 46.018 31.691-.217 1.952-2.605 3.037-7.38 3.037Z"/></g><path data-name="Path 8581" d="M1055.968 836.371a2.725 2.725 0 0 0-4.775-.868 564.844 564.844 0 0 1-71.2 74.67c-2.6 2.388-5.21 4.775-8.031 6.946l-8.031 6.946c-5.644 4.341-11.07 8.9-16.714 13.241-11.287 8.682-22.792 16.714-34.73 24.745a619.813 619.813 0 0 1-73.8 41.893 686.91 686.91 0 0 1-160.627 54.266 745.781 745.781 0 0 1-168.659 14.76l-10.633-.434-10.636-.651c-7.163-.434-14.109-.868-21.055-1.519-14.109-1.3-28-3.039-41.893-5.21a499.4 499.4 0 0 1-81.616-20.62c-52.964-18.233-102.671-46.235-145-82.484-42.545-36.25-77.709-80.748-103.974-130.021A474.987 474.987 0 0 1 43.368 673.79c-7.6-55.134-5.21-111.788 8.9-164.969a327.3 327.3 0 0 1 30.6-76.185 271.177 271.177 0 0 1 49.491-64.468 481.93 481.93 0 0 1 64.685-52.1c11.5-7.6 23.226-14.977 35.381-21.489 6.078-3.473 12.156-6.295 18.45-9.551 3.039-1.519 6.295-2.822 9.334-4.341l4.775-2.171 4.775-1.954c50.576-21.706 105.493-32.777 160.627-33.862 13.892-.217 27.567 0 41.459.868s27.567 2.388 41.242 4.341a582.057 582.057 0 0 1 81.182 17.582 660.419 660.419 0 0 1 78.36 28.218c12.807 5.427 25.4 11.5 37.769 17.8 6.078 3.039 12.372 6.295 18.233 9.768 3.039 1.737 6.078 3.473 8.9 4.992l4.341 2.6 4.124 2.6 19.972-31.033c-1.953-1.3-3.473-2.171-4.992-3.039l-4.775-2.822c-3.256-1.736-6.512-3.69-9.768-5.426-6.512-3.473-13.024-6.946-19.536-10.2-13.241-6.512-26.482-12.59-39.94-18.233a706.074 706.074 0 0 0-82.919-28.652 611.98 611.98 0 0 0-86.17-17.365 497.804 497.804 0 0 0-43.847-3.907c-14.76-.651-29.521-.868-44.064-.434-14.76.434-29.521 1.736-44.064 3.473a426.449 426.449 0 0 0-43.63 7.6 453.019 453.019 0 0 0-84 27.567l-4.995 2.168-4.993 2.388c-3.256 1.519-6.729 3.039-9.985 4.775-6.512 3.473-13.241 6.729-19.536 10.419-12.807 7.163-25.179 15.194-37.335 23.443a541.115 541.115 0 0 0-67.724 56.22 302.09 302.09 0 0 0-53.4 71.631c-14.977 25.4-25.614 53.4-32.777 81.833-14.326 57.3-15.846 117-7.163 174.737A498.009 498.009 0 0 0 76.142 841.58c28.218 51.01 65.553 97.028 110.486 134.363a461.37 461.37 0 0 0 151.94 83.787c55.134 18.233 113.308 26.265 170.829 26.7a746.786 746.786 0 0 0 171.481-17.365c56.22-12.59 110.92-31.474 162.364-57.305a633.42 633.42 0 0 0 74.236-43.63c11.721-8.249 23.443-16.5 34.73-25.4 5.644-4.342 11.07-9.117 16.714-13.458l8.031-6.946c2.822-2.388 5.427-4.775 8.031-7.163a589.31 589.31 0 0 0 70.763-76.406 2.329 2.329 0 0 0 .217-2.388Z"/></g></svg>